<svg width="32" height="33" viewBox="0 0 32 33" fill="none" xmlns="http://www.w3.org/2000/svg">
<path d="M9.10417 1.1875C9.10417 0.872555 8.97906 0.57051 8.75636 0.347811C8.53366 0.125111 8.23161 0 7.91667 0C7.60172 0 7.29968 0.125111 7.07698 0.347811C6.85428 0.57051 6.72917 0.872555 6.72917 1.1875V3.68917C4.44917 3.87125 2.9545 4.31775 1.85567 5.41817C0.755251 6.517 0.308751 8.01325 0.125084 10.2917H31.5416C31.3579 8.01167 30.9114 6.517 29.811 5.41817C28.7122 4.31775 27.2159 3.87125 24.9375 3.68758V1.1875C24.9375 0.872555 24.8124 0.57051 24.5897 0.347811C24.367 0.125111 24.0649 0 23.75 0C23.4351 0 23.133 0.125111 22.9103 0.347811C22.6876 0.57051 22.5625 0.872555 22.5625 1.1875V3.58308C21.5096 3.5625 20.3284 3.5625 19 3.5625H12.6667C11.3383 3.5625 10.1571 3.5625 9.10417 3.58308V1.1875Z" fill="#AC9353"/>
<path fill-rule="evenodd" clip-rule="evenodd" d="M0 16.2291C0 14.9007 1.67638e-08 13.7195 0.0205834 12.6666H31.6461C31.6667 13.7195 31.6667 14.9007 31.6667 16.2291V19.3958C31.6667 25.3665 31.6667 28.3527 29.811 30.2068C27.9553 32.0609 24.9707 32.0625 19 32.0625H12.6667C6.69592 32.0625 3.70975 32.0625 1.85567 30.2068C0.00158322 28.3511 0 25.3665 0 19.3958V16.2291ZM23.75 19.3958C24.1699 19.3958 24.5727 19.229 24.8696 18.932C25.1665 18.6351 25.3333 18.2324 25.3333 17.8125C25.3333 17.3925 25.1665 16.9898 24.8696 16.6929C24.5727 16.3959 24.1699 16.2291 23.75 16.2291C23.3301 16.2291 22.9273 16.3959 22.6304 16.6929C22.3335 16.9898 22.1667 17.3925 22.1667 17.8125C22.1667 18.2324 22.3335 18.6351 22.6304 18.932C22.9273 19.229 23.3301 19.3958 23.75 19.3958ZM23.75 25.7291C24.1699 25.7291 24.5727 25.5623 24.8696 25.2654C25.1665 24.9684 25.3333 24.5657 25.3333 24.1458C25.3333 23.7259 25.1665 23.3231 24.8696 23.0262C24.5727 22.7293 24.1699 22.5625 23.75 22.5625C23.3301 22.5625 22.9273 22.7293 22.6304 23.0262C22.3335 23.3231 22.1667 23.7259 22.1667 24.1458C22.1667 24.5657 22.3335 24.9684 22.6304 25.2654C22.9273 25.5623 23.3301 25.7291 23.75 25.7291ZM17.4167 17.8125C17.4167 18.2324 17.2498 18.6351 16.9529 18.932C16.656 19.229 16.2533 19.3958 15.8333 19.3958C15.4134 19.3958 15.0107 19.229 14.7137 18.932C14.4168 18.6351 14.25 18.2324 14.25 17.8125C14.25 17.3925 14.4168 16.9898 14.7137 16.6929C15.0107 16.3959 15.4134 16.2291 15.8333 16.2291C16.2533 16.2291 16.656 16.3959 16.9529 16.6929C17.2498 16.9898 17.4167 17.3925 17.4167 17.8125ZM17.4167 24.1458C17.4167 24.5657 17.2498 24.9684 16.9529 25.2654C16.656 25.5623 16.2533 25.7291 15.8333 25.7291C15.4134 25.7291 15.0107 25.5623 14.7137 25.2654C14.4168 24.9684 14.25 24.5657 14.25 24.1458C14.25 23.7259 14.4168 23.3231 14.7137 23.0262C15.0107 22.7293 15.4134 22.5625 15.8333 22.5625C16.2533 22.5625 16.656 22.7293 16.9529 23.0262C17.2498 23.3231 17.4167 23.7259 17.4167 24.1458ZM7.91667 19.3958C8.33659 19.3958 8.73932 19.229 9.03625 18.932C9.33318 18.6351 9.5 18.2324 9.5 17.8125C9.5 17.3925 9.33318 16.9898 9.03625 16.6929C8.73932 16.3959 8.33659 16.2291 7.91667 16.2291C7.49674 16.2291 7.09401 16.3959 6.79708 16.6929C6.50015 16.9898 6.33333 17.3925 6.33333 17.8125C6.33333 18.2324 6.50015 18.6351 6.79708 18.932C7.09401 19.229 7.49674 19.3958 7.91667 19.3958ZM7.91667 25.7291C8.33659 25.7291 8.73932 25.5623 9.03625 25.2654C9.33318 24.9684 9.5 24.5657 9.5 24.1458C9.5 23.7259 9.33318 23.3231 9.03625 23.0262C8.73932 22.7293 8.33659 22.5625 7.91667 22.5625C7.49674 22.5625 7.09401 22.7293 6.79708 23.0262C6.50015 23.3231 6.33333 23.7259 6.33333 24.1458C6.33333 24.5657 6.50015 24.9684 6.79708 25.2654C7.09401 25.5623 7.49674 25.7291 7.91667 25.7291Z" fill="#AC9353"/>
</svg>
