<svg width="38" height="38" viewBox="0 0 38 38" fill="none" xmlns="http://www.w3.org/2000/svg">
<path d="M19 0C29.4937 0 38 8.5063 38 19C38 29.4937 29.4937 38 19 38C8.5063 38 0 29.4937 0 19C0 8.5063 8.5063 0 19 0ZM19 7.6C18.4961 7.6 18.0128 7.80018 17.6565 8.1565C17.3002 8.51282 17.1 8.99609 17.1 9.5V19C17.1001 19.5039 17.3004 19.9871 17.6567 20.3433L23.3567 26.0433C23.715 26.3894 24.195 26.5809 24.6932 26.5766C25.1913 26.5723 25.6679 26.3724 26.0202 26.0202C26.3724 25.6679 26.5723 25.1913 26.5766 24.6932C26.5809 24.195 26.3894 23.715 26.0433 23.3567L20.9 18.2134V9.5C20.9 8.99609 20.6998 8.51282 20.3435 8.1565C19.9872 7.80018 19.5039 7.6 19 7.6Z" fill="#AC9353"/>
</svg>
