<svg width="39" height="35" viewBox="0 0 39 35" fill="none" xmlns="http://www.w3.org/2000/svg">
<path d="M6.62744 22.7906V28.0624C8.23815 30.0368 10.2683 31.6277 12.5706 32.7196C14.8729 33.8115 17.3894 34.377 19.9374 34.375C25.8829 34.375 31.1244 31.3555 34.2099 26.7671V19.3779C33.1539 26.312 27.1658 31.625 19.9374 31.625C13.9507 31.625 8.81507 27.9813 6.62744 22.7906ZM31.6662 8.76702V6.39927C31.6616 5.87702 31.7472 5.3579 31.9192 4.86477C28.7141 1.74026 24.4135 -0.0058424 19.9374 1.88735e-05C15.9319 -0.00592649 12.051 1.39295 8.97044 3.95314L8.97732 4.03702L8.97869 4.07414V7.78664C10.333 6.20526 12.014 4.93615 13.9058 4.06667C15.7976 3.19719 17.8554 2.748 19.9374 2.75002C24.7692 2.75002 29.0454 5.12327 31.6662 8.76702Z" fill="#AC9353"/>
<path d="M30.9375 17.1876C30.9375 20.105 29.7786 22.9029 27.7157 24.9658C25.6528 27.0287 22.8549 28.1876 19.9375 28.1876C17.0201 28.1876 14.2222 27.0287 12.1593 24.9658C10.0964 22.9029 8.9375 20.105 8.9375 17.1876C8.9375 14.2702 10.0964 11.4723 12.1593 9.40942C14.2222 7.34652 17.0201 6.1876 19.9375 6.1876C22.8549 6.1876 25.6528 7.34652 27.7157 9.40942C29.7786 11.4723 30.9375 14.2702 30.9375 17.1876ZM19.9375 26.8126C21.2015 26.8126 22.4531 26.5636 23.6208 26.0799C24.7886 25.5962 25.8496 24.8873 26.7434 23.9935C27.6372 23.0997 28.3461 22.0387 28.8298 20.8709C29.3135 19.7032 29.5625 18.4516 29.5625 17.1876C29.5625 15.9236 29.3135 14.672 28.8298 13.5043C28.3461 12.3365 27.6372 11.2755 26.7434 10.3817C25.8496 9.48793 24.7886 8.77896 23.6208 8.29526C22.4531 7.81156 21.2015 7.5626 19.9375 7.5626C17.3848 7.5626 14.9366 8.57666 13.1316 10.3817C11.3266 12.1867 10.3125 14.6349 10.3125 17.1876C10.3125 19.7403 11.3266 22.1885 13.1316 23.9935C14.9366 25.7985 17.3848 26.8126 19.9375 26.8126ZM38.4862 5.4176C38.4862 4.1801 37.4825 3.17635 36.245 3.17635C34.4575 3.17635 33.0275 4.6201 33.0412 6.39385V14.0251C33.0412 15.748 34.0395 17.2907 35.585 17.9892V29.8376C35.585 30.5526 36.1625 31.1301 36.8775 31.1301H37.1937C37.9087 31.1301 38.4862 30.5526 38.4862 29.8376V5.4176ZM6.6275 3.17635C6.37952 3.17635 6.1417 3.27486 5.96635 3.4502C5.79101 3.62555 5.6925 3.86337 5.6925 4.11135V7.8101C5.6925 8.0851 5.4725 8.29135 5.21125 8.29135C4.93625 8.29135 4.73 8.07135 4.73 7.8101V4.1526C4.73 3.64385 4.33125 3.1901 3.8225 3.17635C3.28625 3.1626 2.84625 3.58885 2.84625 4.11135V7.8101C2.84625 8.0851 2.62625 8.29135 2.365 8.29135C2.09 8.29135 1.88375 8.07135 1.88375 7.8101V4.1526C1.88375 3.64385 1.485 3.1901 0.97625 3.17635C0.44 3.1626 0 3.58885 0 4.11135V10.4088C0 11.6491 0.600875 12.756 1.52487 13.4462C2.35125 13.9123 2.35125 16.0463 2.35125 16.0463V29.8238C2.35125 30.5388 2.92875 31.1163 3.64375 31.1163H3.96C4.675 31.1163 5.2525 30.5388 5.2525 29.8238V16.0463C5.2525 16.0463 5.2525 13.9962 6.07887 13.4462C6.55165 13.0933 6.93563 12.635 7.20033 12.1078C7.46503 11.5805 7.60316 10.9988 7.60375 10.4088V4.11135C7.58983 3.86079 7.48127 3.62487 7.30004 3.4513C7.11881 3.27772 6.87842 3.17945 6.6275 3.17635Z" fill="#AC9353"/>
</svg>
