<svg width="50" height="54" viewBox="0 0 50 54" fill="none" xmlns="http://www.w3.org/2000/svg">
<path d="M46.1387 30.873V51.3486C46.1386 52.0476 45.861 52.7176 45.3682 53.2119C44.8752 53.7063 44.2068 53.9843 43.5098 53.9844H27.6602V30.873H46.1387ZM22.3398 30.873V53.9844H6.49023C5.79315 53.9843 5.12476 53.7063 4.63184 53.2119C4.13904 52.7176 3.86144 52.0476 3.86133 51.3486V30.873H22.3398ZM30.8389 0.0585938C33.054 -0.155866 35.2728 0.429329 37.0967 1.70801C38.9206 2.98674 40.2301 4.8761 40.79 7.03613C41.3499 9.19608 41.1234 11.4856 40.1514 13.4932L40.1406 13.5156H47.3555C48.0526 13.5156 48.7219 13.7927 49.2148 14.2871C49.7078 14.7814 49.9843 15.4523 49.9844 16.1514V24.3477C49.9844 25.0467 49.7076 25.7176 49.2148 26.2119C48.7219 26.7063 48.0526 26.9844 47.3555 26.9844H27.6602V13.5156H31.7305C32.5418 13.5156 33.3352 13.2742 34.0098 12.8223C34.6844 12.3702 35.21 11.7273 35.5205 10.9756C35.8309 10.2239 35.9122 9.39659 35.7539 8.59863C35.5956 7.80076 35.2055 7.06745 34.6318 6.49219C34.0582 5.91687 33.327 5.52496 32.5312 5.36621C31.7356 5.20749 30.9106 5.2893 30.1611 5.60059C29.4116 5.91196 28.7711 6.4397 28.3203 7.11621C27.8696 7.79269 27.6289 8.58778 27.6289 9.40137V13.4844H22.3711V9.40137C22.3711 8.31036 21.9392 7.26366 21.1699 6.49219C20.4007 5.72087 19.3573 5.28817 18.2695 5.28809C17.1816 5.28809 16.1375 5.72068 15.3682 6.49219C14.5989 7.26366 14.167 8.31036 14.167 9.40137C14.167 10.4924 14.5989 11.5391 15.3682 12.3105C16.1375 13.0821 17.1816 13.5156 18.2695 13.5156H22.3398V26.9844H2.64453C2.29941 26.9844 1.95753 26.9156 1.63867 26.7832C1.31976 26.6507 1.02925 26.4567 0.785156 26.2119C0.29237 25.7176 0.015625 25.0467 0.015625 24.3477V16.1514C0.0156713 15.4523 0.292241 14.7814 0.785156 14.2871C1.27812 13.7927 1.9474 13.5156 2.64453 13.5156H9.85742L9.84668 13.4932C8.88395 11.4859 8.66473 9.20057 9.22754 7.0459C9.79033 4.8913 11.0987 3.00755 12.9189 1.73145C14.7393 0.455351 16.953 -0.129976 19.1641 0.0800781C21.3751 0.290155 23.4403 1.28169 24.9893 2.87793L25 2.88965L25.0117 2.87793C26.558 1.2731 28.6239 0.273065 30.8389 0.0585938Z" fill="#8E668E" stroke="#8E668E" stroke-width="0.03125"/>
</svg>
