<svg width="30" height="37" viewBox="0 0 30 37" fill="none" xmlns="http://www.w3.org/2000/svg">
<path d="M11.8583 34.6631C12.8683 35.496 13.9217 36.2571 15 37C16.0807 36.267 17.1289 35.4873 18.1417 34.6631C19.83 33.2777 21.4189 31.7755 22.8967 30.1676C26.3033 26.445 30 21.0484 30 14.9905C30 13.022 29.612 11.0726 28.8582 9.25391C28.1044 7.43518 26.9995 5.78263 25.6066 4.39063C24.2137 2.99863 22.5601 1.89443 20.7403 1.14109C18.9204 0.387742 16.9698 0 15 0C13.0302 0 11.0796 0.387742 9.25975 1.14109C7.43986 1.89443 5.78628 2.99863 4.3934 4.39063C3.00052 5.78263 1.89563 7.43518 1.14181 9.25391C0.387986 11.0726 -2.93527e-08 13.022 0 14.9905C0 21.0484 3.69667 26.4433 7.10333 30.1676C8.58103 31.7761 10.1699 33.2772 11.8583 34.6631ZM15 20.4038C13.5634 20.4038 12.1857 19.8335 11.1698 18.8183C10.154 17.8031 9.58333 16.4262 9.58333 14.9905C9.58333 13.5549 10.154 12.178 11.1698 11.1628C12.1857 10.1476 13.5634 9.57729 15 9.57729C16.4366 9.57729 17.8143 10.1476 18.8302 11.1628C19.846 12.178 20.4167 13.5549 20.4167 14.9905C20.4167 16.4262 19.846 17.8031 18.8302 18.8183C17.8143 19.8335 16.4366 20.4038 15 20.4038Z" fill="#AC9353"/>
</svg>
