<svg width="59" height="51" viewBox="0 0 59 51" fill="none" xmlns="http://www.w3.org/2000/svg">
<mask id="path-1-inside-1_158_188" fill="white">
<path d="M30.1493 29.3999C32.1193 29.6019 33.9443 30.5273 35.2714 31.9972C36.5984 33.4671 37.3331 35.3769 37.3333 37.3572C37.3333 41.4692 34.8267 44.8719 31.456 47.1172C28.0693 49.3786 23.536 50.6906 18.6667 50.6906C13.7973 50.6906 9.264 49.3786 5.87733 47.1172C2.50133 44.8772 0 41.4692 0 37.3572C0 35.2355 0.842855 33.2007 2.34315 31.7004C3.84344 30.2001 5.87827 29.3572 8 29.3572H29.3333L30.1493 29.3999ZM50.6827 29.3572C52.8044 29.3572 54.8392 30.2001 56.3395 31.7004C57.8398 33.2007 58.6827 35.2355 58.6827 37.3572C58.6827 41.0639 56.3787 43.8159 53.44 45.5066C50.5173 47.1866 46.6933 48.0239 42.6827 48.0239C41.3316 48.0203 40.0142 47.9208 38.7307 47.7252C41.04 44.9946 42.672 41.5066 42.672 37.3572C42.6659 34.4699 41.7226 31.6625 39.984 29.3572H50.6827ZM18.6773 0.00255449C20.2763 -0.0304193 21.8657 0.256119 23.3524 0.845374C24.8392 1.43463 26.1933 2.31474 27.3355 3.43413C28.4777 4.55351 29.385 5.88964 30.0041 7.3642C30.6232 8.83876 30.9418 10.4221 30.9411 12.0213C30.9404 13.6206 30.6204 15.2036 30 16.6776C29.3795 18.1516 28.4711 19.487 27.3279 20.6053C26.1847 21.7237 24.8298 22.6026 23.3425 23.1906C21.8552 23.7785 20.2656 24.0636 18.6667 24.0292C15.5244 23.963 12.5331 22.6682 10.3342 20.4225C8.13527 18.1768 6.9038 15.1589 6.9038 12.0159C6.9038 8.87289 8.13527 5.85499 10.3342 3.60927C12.5331 1.36354 15.5244 0.068767 18.6667 0.00255449M44 5.34122C45.2257 5.34122 46.4393 5.58264 47.5717 6.05168C48.7041 6.52072 49.733 7.20821 50.5997 8.07489C51.4664 8.94157 52.1538 9.97047 52.6229 11.1028C53.0919 12.2352 53.3333 13.4489 53.3333 14.6746C53.3333 15.9002 53.0919 17.1139 52.6229 18.2463C52.1538 19.3786 51.4664 20.4075 50.5997 21.2742C49.733 22.1409 48.7041 22.8284 47.5717 23.2974C46.4393 23.7665 45.2257 24.0079 44 24.0079C41.5246 24.0079 39.1507 23.0246 37.4003 21.2742C35.65 19.5239 34.6667 17.1499 34.6667 14.6746C34.6667 12.1992 35.65 9.82523 37.4003 8.07489C39.1507 6.32455 41.5246 5.34122 44 5.34122Z"/>
</mask>
<path d="M30.1493 29.3999C32.1193 29.6019 33.9443 30.5273 35.2714 31.9972C36.5984 33.4671 37.3331 35.3769 37.3333 37.3572C37.3333 41.4692 34.8267 44.8719 31.456 47.1172C28.0693 49.3786 23.536 50.6906 18.6667 50.6906C13.7973 50.6906 9.264 49.3786 5.87733 47.1172C2.50133 44.8772 0 41.4692 0 37.3572C0 35.2355 0.842855 33.2007 2.34315 31.7004C3.84344 30.2001 5.87827 29.3572 8 29.3572H29.3333L30.1493 29.3999ZM50.6827 29.3572C52.8044 29.3572 54.8392 30.2001 56.3395 31.7004C57.8398 33.2007 58.6827 35.2355 58.6827 37.3572C58.6827 41.0639 56.3787 43.8159 53.44 45.5066C50.5173 47.1866 46.6933 48.0239 42.6827 48.0239C41.3316 48.0203 40.0142 47.9208 38.7307 47.7252C41.04 44.9946 42.672 41.5066 42.672 37.3572C42.6659 34.4699 41.7226 31.6625 39.984 29.3572H50.6827ZM18.6773 0.00255449C20.2763 -0.0304193 21.8657 0.256119 23.3524 0.845374C24.8392 1.43463 26.1933 2.31474 27.3355 3.43413C28.4777 4.55351 29.385 5.88964 30.0041 7.3642C30.6232 8.83876 30.9418 10.4221 30.9411 12.0213C30.9404 13.6206 30.6204 15.2036 30 16.6776C29.3795 18.1516 28.4711 19.487 27.3279 20.6053C26.1847 21.7237 24.8298 22.6026 23.3425 23.1906C21.8552 23.7785 20.2656 24.0636 18.6667 24.0292C15.5244 23.963 12.5331 22.6682 10.3342 20.4225C8.13527 18.1768 6.9038 15.1589 6.9038 12.0159C6.9038 8.87289 8.13527 5.85499 10.3342 3.60927C12.5331 1.36354 15.5244 0.068767 18.6667 0.00255449M44 5.34122C45.2257 5.34122 46.4393 5.58264 47.5717 6.05168C48.7041 6.52072 49.733 7.20821 50.5997 8.07489C51.4664 8.94157 52.1538 9.97047 52.6229 11.1028C53.0919 12.2352 53.3333 13.4489 53.3333 14.6746C53.3333 15.9002 53.0919 17.1139 52.6229 18.2463C52.1538 19.3786 51.4664 20.4075 50.5997 21.2742C49.733 22.1409 48.7041 22.8284 47.5717 23.2974C46.4393 23.7665 45.2257 24.0079 44 24.0079C41.5246 24.0079 39.1507 23.0246 37.4003 21.2742C35.65 19.5239 34.6667 17.1499 34.6667 14.6746C34.6667 12.1992 35.65 9.82523 37.4003 8.07489C39.1507 6.32455 41.5246 5.34122 44 5.34122Z" fill="#8E668E"/>
<path d="M30.1493 29.3999L30.2513 28.4051L30.2265 28.4026L30.2015 28.4013L30.1493 29.3999ZM37.3333 37.3572H38.3333V37.3571L37.3333 37.3572ZM31.456 47.1172L30.9016 46.285L30.9007 46.2856L31.456 47.1172ZM5.87733 47.1172L6.43264 46.2856L6.43021 46.284L5.87733 47.1172ZM0 37.3572H-1H0ZM8 29.3572V28.3572V29.3572ZM29.3333 29.3572L29.3855 28.3586L29.3595 28.3572H29.3333V29.3572ZM58.6827 37.3572H59.6827H58.6827ZM53.44 45.5066L53.9384 46.3735L53.9387 46.3733L53.44 45.5066ZM42.6827 48.0239L42.68 49.0239H42.6827V48.0239ZM38.7307 47.7252L37.9671 47.0795L36.8127 48.4445L38.5801 48.7138L38.7307 47.7252ZM42.672 37.3572H43.672L43.672 37.3551L42.672 37.3572ZM39.984 29.3572V28.3572H37.9773L39.1856 29.9594L39.984 29.3572ZM18.6667 24.0292L18.6882 23.0295L18.6877 23.0294L18.6667 24.0292ZM44 5.34122V6.34122V5.34122ZM44 24.0079V23.0079V24.0079ZM34.6667 14.6746H35.6667H34.6667ZM30.1493 29.3999L30.0473 30.3947C31.7711 30.5714 33.368 31.3812 34.5291 32.6673L35.2714 31.9972L36.0136 31.3271C34.5207 29.6735 32.4675 28.6323 30.2513 28.4051L30.1493 29.3999ZM35.2714 31.9972L34.5291 32.6673C35.6903 33.9535 36.3331 35.6246 36.3333 37.3573L37.3333 37.3572L38.3333 37.3571C38.3331 35.1293 37.5065 32.9807 36.0136 31.3271L35.2714 31.9972ZM37.3333 37.3572H36.3333C36.3333 41.0286 34.0956 44.1573 30.9016 46.285L31.456 47.1172L32.0104 47.9495C35.5577 45.5865 38.3333 41.9098 38.3333 37.3572H37.3333ZM31.456 47.1172L30.9007 46.2856C27.7003 48.4225 23.3663 49.6906 18.6667 49.6906V50.6906V51.6906C23.7057 51.6906 28.4384 50.3346 32.0113 47.9489L31.456 47.1172ZM18.6667 50.6906V49.6906C13.967 49.6906 9.63306 48.4225 6.43264 46.2856L5.87733 47.1172L5.32203 47.9489C8.89494 50.3346 13.6277 51.6906 18.6667 51.6906V50.6906ZM5.87733 47.1172L6.43021 46.284C3.23355 44.1629 1 41.0297 1 37.3572H0H-1C-1 41.9087 1.76912 45.5915 5.32446 47.9505L5.87733 47.1172ZM0 37.3572H1C1 35.5007 1.7375 33.7202 3.05025 32.4075L2.34315 31.7004L1.63604 30.9933C-0.0517886 32.6811 -1 34.9703 -1 37.3572H0ZM2.34315 31.7004L3.05025 32.4075C4.36301 31.0947 6.14348 30.3572 8 30.3572V29.3572V28.3572C5.61305 28.3572 3.32387 29.3054 1.63604 30.9933L2.34315 31.7004ZM8 29.3572V30.3572H29.3333V29.3572V28.3572H8V29.3572ZM29.3333 29.3572L29.2811 30.3559L30.0971 30.3985L30.1493 29.3999L30.2015 28.4013L29.3855 28.3586L29.3333 29.3572ZM50.6827 29.3572V30.3572C52.5392 30.3572 54.3197 31.0947 55.6324 32.4075L56.3395 31.7004L57.0466 30.9933C55.3588 29.3054 53.0696 28.3572 50.6827 28.3572V29.3572ZM56.3395 31.7004L55.6324 32.4075C56.9452 33.7202 57.6827 35.5007 57.6827 37.3572H58.6827H59.6827C59.6827 34.9703 58.7345 32.6811 57.0466 30.9933L56.3395 31.7004ZM58.6827 37.3572H57.6827C57.6827 40.59 55.6857 43.0609 52.9413 44.6398L53.44 45.5066L53.9387 46.3733C57.0717 44.5709 59.6827 41.5378 59.6827 37.3572H58.6827ZM53.44 45.5066L52.9417 44.6396C50.2094 46.2101 46.5695 47.0239 42.6827 47.0239V48.0239V49.0239C46.8172 49.0239 50.8252 48.163 53.9384 46.3735L53.44 45.5066ZM42.6827 48.0239L42.6853 47.0239C41.3817 47.0205 40.1139 46.9244 38.8813 46.7366L38.7307 47.7252L38.5801 48.7138C39.9145 48.9171 41.2814 49.0202 42.68 49.0239L42.6827 48.0239ZM38.7307 47.7252L39.4942 48.371C41.9262 45.4953 43.672 41.7857 43.672 37.3572H42.672H41.672C41.672 41.2274 40.1538 44.4938 37.9671 47.0795L38.7307 47.7252ZM42.672 37.3572L43.672 37.3551C43.6654 34.2512 42.6514 31.2333 40.7824 28.7551L39.984 29.3572L39.1856 29.9594C40.7938 32.0917 41.6663 34.6885 41.672 37.3594L42.672 37.3572ZM39.984 29.3572V30.3572H50.6827V29.3572V28.3572H39.984V29.3572ZM18.6773 0.00255449L18.698 1.00234C20.1638 0.972112 21.621 1.2348 22.984 1.77502L23.3524 0.845374L23.7209 -0.0842723C22.1104 -0.722566 20.3887 -1.03295 18.6567 -0.997233L18.6773 0.00255449ZM23.3524 0.845374L22.984 1.77502C24.347 2.31524 25.5885 3.1221 26.6356 4.14833L27.3355 3.43413L28.0355 2.71992C26.7982 1.50738 25.3314 0.554021 23.7209 -0.0842723L23.3524 0.845374ZM27.3355 3.43413L26.6356 4.14833C27.6827 5.17456 28.5145 6.39949 29.0821 7.75133L30.0041 7.3642L30.9261 6.97707C30.2555 5.37979 29.2727 3.93247 28.0355 2.71992L27.3355 3.43413ZM30.0041 7.3642L29.0821 7.75133C29.6497 9.10318 29.9417 10.5547 29.9411 12.0209L30.9411 12.0213L31.9411 12.0218C31.9418 10.2894 31.5968 8.57434 30.9261 6.97707L30.0041 7.3642ZM30.9411 12.0213L29.9411 12.0209C29.9404 13.4871 29.6471 14.9383 29.0783 16.2897L30 16.6776L30.9217 17.0656C31.5937 15.4689 31.9403 13.7541 31.9411 12.0218L30.9411 12.0213ZM30 16.6776L29.0783 16.2897C28.5095 17.641 27.6767 18.8652 26.6286 19.8905L27.3279 20.6053L28.0272 21.3202C29.2655 20.1087 30.2496 18.6623 30.9217 17.0656L30 16.6776ZM27.3279 20.6053L26.6286 19.8905C25.5806 20.9158 24.3384 21.7216 22.9749 22.2606L23.3425 23.1906L23.7101 24.1205C25.3212 23.4837 26.7889 22.5316 28.0272 21.3202L27.3279 20.6053ZM23.3425 23.1906L22.9749 22.2606C21.6114 22.7996 20.154 23.061 18.6882 23.0295L18.6667 24.0292L18.6452 25.029C20.3771 25.0662 22.0991 24.7574 23.7101 24.1205L23.3425 23.1906ZM18.6667 24.0292L18.6877 23.0294C15.8069 22.9687 13.0646 21.7817 11.0487 19.7229L10.3342 20.4225L9.61966 21.1221C12.0016 23.5547 15.2418 24.9573 18.6456 25.029L18.6667 24.0292ZM10.3342 20.4225L11.0487 19.7229C9.03279 17.6641 7.9038 14.8973 7.9038 12.0159H6.9038H5.9038C5.9038 15.4205 7.23776 18.6895 9.61966 21.1221L10.3342 20.4225ZM6.9038 12.0159H7.9038C7.9038 9.13445 9.03279 6.36772 11.0487 4.30889L10.3342 3.60927L9.61966 2.90965C7.23776 5.34227 5.9038 8.61132 5.9038 12.0159H6.9038ZM10.3342 3.60927L11.0487 4.30889C13.0646 2.25005 15.8069 1.06303 18.6877 1.00233L18.6667 0.00255449L18.6456 -0.997224C15.2418 -0.925501 12.0016 0.477028 9.61966 2.90965L10.3342 3.60927ZM44 5.34122V6.34122C45.0943 6.34122 46.178 6.55677 47.189 6.97556L47.5717 6.05168L47.9544 5.1278C46.7007 4.6085 45.357 4.34122 44 4.34122V5.34122ZM47.5717 6.05168L47.189 6.97556C48.2001 7.39435 49.1187 8.00818 49.8926 8.782L50.5997 8.07489L51.3068 7.36779C50.3472 6.40825 49.2081 5.6471 47.9544 5.1278L47.5717 6.05168ZM50.5997 8.07489L49.8926 8.782C50.6664 9.55582 51.2802 10.4745 51.699 11.4855L52.6229 11.1028L53.5468 10.7202C53.0275 9.46646 52.2663 8.32732 51.3068 7.36779L50.5997 8.07489ZM52.6229 11.1028L51.699 11.4855C52.1178 12.4966 52.3333 13.5802 52.3333 14.6746H53.3333H54.3333C54.3333 13.3176 54.0661 11.9739 53.5468 10.7202L52.6229 11.1028ZM53.3333 14.6746H52.3333C52.3333 15.7689 52.1178 16.8525 51.699 17.8636L52.6229 18.2463L53.5468 18.629C54.0661 17.3753 54.3333 16.0315 54.3333 14.6746H53.3333ZM52.6229 18.2463L51.699 17.8636C51.2802 18.8746 50.6664 19.7933 49.8926 20.5671L50.5997 21.2742L51.3068 21.9813C52.2663 21.0218 53.0275 19.8826 53.5468 18.629L52.6229 18.2463ZM50.5997 21.2742L49.8926 20.5671C49.1187 21.3409 48.2001 21.9548 47.189 22.3736L47.5717 23.2974L47.9544 24.2213C49.2081 23.702 50.3472 22.9409 51.3068 21.9813L50.5997 21.2742ZM47.5717 23.2974L47.189 22.3736C46.178 22.7923 45.0943 23.0079 44 23.0079V24.0079V25.0079C45.357 25.0079 46.7007 24.7406 47.9544 24.2213L47.5717 23.2974ZM44 24.0079V23.0079C41.7899 23.0079 39.6702 22.1299 38.1074 20.5671L37.4003 21.2742L36.6932 21.9813C38.6311 23.9192 41.2594 25.0079 44 25.0079V24.0079ZM37.4003 21.2742L38.1074 20.5671C36.5446 19.0043 35.6667 16.8847 35.6667 14.6746H34.6667H33.6667C33.6667 17.4151 34.7554 20.0434 36.6932 21.9813L37.4003 21.2742ZM34.6667 14.6746H35.6667C35.6667 12.4644 36.5446 10.3448 38.1074 8.782L37.4003 8.07489L36.6932 7.36779C34.7554 9.30566 33.6667 11.934 33.6667 14.6746H34.6667ZM37.4003 8.07489L38.1074 8.782C39.6702 7.2192 41.7899 6.34122 44 6.34122V5.34122V4.34122C41.2594 4.34122 38.6311 5.42991 36.6932 7.36779L37.4003 8.07489Z" fill="#8E668E" mask="url(#path-1-inside-1_158_188)"/>
</svg>
