<svg width="34" height="39" viewBox="0 0 34 39" fill="none" xmlns="http://www.w3.org/2000/svg">
<path d="M17 15.4545L8.5 4.63636L11.9 0H22.1L25.5 4.63636L17 15.4545ZM24.4375 9.27273L21.8875 12.5568C26.5625 14.2955 29.75 18.3523 29.75 23.1818C29.75 26.2559 28.4067 29.2041 26.0156 31.3778C23.6245 33.5515 20.3815 34.7727 17 34.7727C13.6185 34.7727 10.3755 33.5515 7.98439 31.3778C5.5933 29.2041 4.25 26.2559 4.25 23.1818C4.25 18.3523 7.4375 14.2955 12.1125 12.5568L9.5625 9.27273C3.825 11.7841 0 17 0 23.1818C0 27.2806 1.79107 31.2115 4.97918 34.1098C8.1673 37.0081 12.4913 38.6364 17 38.6364C21.5087 38.6364 25.8327 37.0081 29.0208 34.1098C32.2089 31.2115 34 27.2806 34 23.1818C34 17 30.175 11.7841 24.4375 9.27273Z" fill="#634463"/>
</svg>
