<svg width="50" height="54" viewBox="0 0 50 54" fill="none" xmlns="http://www.w3.org/2000/svg">
<path d="M22.3558 13.4997H27.6442V26.9998H47.3558C48.0571 26.9998 48.7296 26.7204 49.2255 26.2231C49.7214 25.7258 50 25.0513 50 24.348V16.1515C50 15.4482 49.7214 14.7737 49.2255 14.2764C48.7296 13.7791 48.0571 13.4997 47.3558 13.4997H40.1659C41.1395 11.4887 41.3663 9.19544 40.8054 7.03182C40.2446 4.8682 38.9328 2.97602 37.1058 1.69516C35.2789 0.414291 33.0563 -0.171325 30.8375 0.0434985C28.6187 0.258322 26.5489 1.25951 25 2.86722C23.4484 1.26832 21.3804 0.274873 19.1656 0.0644438C16.9508 -0.145985 14.7336 0.440317 12.9102 1.71856C11.0868 2.9968 9.77615 4.88367 9.2124 7.04193C8.64865 9.20018 8.8686 11.4892 9.83293 13.4997H2.64423C1.94294 13.4997 1.27037 13.7791 0.774477 14.2764C0.278588 14.7737 0 15.4482 0 16.1515V24.348C0 25.0513 0.278588 25.7258 0.774477 26.2231C1.02002 26.4694 1.31151 26.6647 1.63233 26.798C1.95314 26.9312 2.29699 26.9998 2.64423 26.9998H22.3558V13.4997ZM27.6442 9.4015C27.6442 8.59095 27.8839 7.79859 28.3329 7.12464C28.782 6.45069 29.4202 5.92541 30.1669 5.61522C30.9136 5.30503 31.7353 5.22387 32.528 5.38201C33.3207 5.54014 34.0489 5.93046 34.6204 6.50361C35.1919 7.07676 35.5811 7.80699 35.7388 8.60197C35.8965 9.39695 35.8155 10.221 35.5062 10.9698C35.1969 11.7187 34.6732 12.3587 34.0011 12.8091C33.3291 13.2594 32.539 13.4997 31.7308 13.4997H27.6442V9.4015ZM14.1827 9.4015C14.1827 8.31458 14.6132 7.27218 15.3796 6.50361C16.146 5.73504 17.1854 5.30326 18.2692 5.30326C19.353 5.30326 20.3925 5.73504 21.1588 6.50361C21.9252 7.27218 22.3558 8.31458 22.3558 9.4015V13.4997H18.2692C17.1854 13.4997 16.146 13.068 15.3796 12.2994C14.6132 11.5308 14.1827 10.4884 14.1827 9.4015ZM27.6442 54H43.5096C44.2109 54 44.8835 53.7206 45.3794 53.2233C45.8753 52.726 46.1538 52.0515 46.1538 51.3482V30.857H27.6442V54ZM3.84615 51.3482C3.84615 52.0515 4.12474 52.726 4.62063 53.2233C5.11652 53.7206 5.78909 54 6.49038 54H22.3558V30.857H3.84615V51.3482Z" fill="#2F3B1A"/>
</svg>
