<svg width="248" height="24" viewBox="0 0 248 24" fill="none" xmlns="http://www.w3.org/2000/svg">
<path d="M101.887 11.5H102.387V12.5H101.887V12V11.5ZM0 12L2.88675 9.11325L5.7735 12L2.88675 14.8868L0 12ZM101.887 12V12.5H2.88675V12V11.5H101.887V12Z" fill="#5D4912"/>
<path d="M123.887 21.35L122.437 20.03C117.287 15.36 113.887 12.27 113.887 8.5C113.887 5.41 116.307 3 119.387 3C121.127 3 122.797 3.81 123.887 5.08C124.977 3.81 126.647 3 128.387 3C131.467 3 133.887 5.41 133.887 8.5C133.887 12.27 130.487 15.36 125.337 20.03L123.887 21.35Z" fill="#5D4912"/>
<path d="M145.887 11.5H145.387V12.5H145.887V12V11.5ZM247.773 12L244.887 9.11325L242 12L244.887 14.8868L247.773 12ZM145.887 12V12.5H244.887V12V11.5H145.887V12Z" fill="#5D4912"/>
</svg>
