<svg width="41" height="51" viewBox="0 0 41 51" fill="none" xmlns="http://www.w3.org/2000/svg">
<path d="M20.5 20.4L10.25 6.12L14.35 0H26.65L30.75 6.12L20.5 20.4ZM29.4688 12.24L26.3938 16.575C32.0313 18.87 35.875 24.225 35.875 30.6C35.875 34.6578 34.2551 38.5494 31.3718 41.4187C28.4884 44.288 24.5777 45.9 20.5 45.9C16.4223 45.9 12.5116 44.288 9.62823 41.4187C6.74486 38.5494 5.125 34.6578 5.125 30.6C5.125 24.225 8.96875 18.87 14.6062 16.575L11.5312 12.24C4.6125 15.555 0 22.44 0 30.6C0 36.0104 2.15982 41.1992 6.00431 45.025C9.84881 48.8507 15.0631 51 20.5 51C25.9369 51 31.1512 48.8507 34.9957 45.025C38.8402 41.1992 41 36.0104 41 30.6C41 22.44 36.3875 15.555 29.4688 12.24Z" fill="#625125"/>
</svg>
