<svg width="51" height="51" viewBox="0 0 51 51" fill="none" xmlns="http://www.w3.org/2000/svg">
<path d="M51 25.5C51 39.5833 39.5833 51 25.5 51C11.4167 51 0 39.5833 0 25.5C0 11.4167 11.4167 0 25.5 0C39.5833 0 51 11.4167 51 25.5Z" fill="#F4E5CE"/>
<path d="M25.5 22.644L20.2725 15.3612L22.3635 12.24H28.6365L30.7275 15.3612L25.5 22.644ZM30.0741 18.4824L28.5058 20.6933C31.3809 21.8637 33.3412 24.5947 33.3412 27.846C33.3412 29.9155 32.5151 31.9002 31.0446 33.3636C29.5741 34.8269 27.5796 35.649 25.5 35.649C23.4204 35.649 21.4259 34.8269 19.9554 33.3636C18.4849 31.9002 17.6588 29.9155 17.6588 27.846C17.6588 24.5947 19.6191 21.8637 22.4942 20.6933L20.9259 18.4824C17.3974 20.173 15.045 23.6844 15.045 27.846C15.045 30.6053 16.1465 33.2516 18.1072 35.2027C20.0679 37.1539 22.7272 38.25 25.5 38.25C28.2728 38.25 30.9321 37.1539 32.8928 35.2027C34.8535 33.2516 35.955 30.6053 35.955 27.846C35.955 23.6844 33.6026 20.173 30.0741 18.4824Z" fill="#625125"/>
</svg>
