<svg width="178" height="101" viewBox="0 0 178 101" fill="none" xmlns="http://www.w3.org/2000/svg">
<path d="M52.5879 37.501C52.3405 37.501 52.2168 37.3402 52.2168 37.0186L53.998 14.1406L54.0908 13.0645V12.9346C54.0908 12.0316 53.2311 11.5801 51.5117 11.5801C51.252 11.5801 51.1221 11.4749 51.1221 11.2646C51.1221 11.0544 51.1592 10.9307 51.2334 10.8936C51.3076 10.8564 51.4251 10.8379 51.5859 10.8379H60.418C60.5911 10.8379 60.6963 10.8874 60.7334 10.9863C60.7705 11.0853 60.7891 11.1471 60.7891 11.1719C60.7891 11.444 60.5602 11.5801 60.1025 11.5801C59.6572 11.5801 59.2428 11.6481 58.8594 11.7842C58.4883 11.9202 58.1852 12.0996 57.9502 12.3223C57.5544 12.7181 57.3132 13.3923 57.2266 14.3447C57.1523 15.2848 57.0596 16.4043 56.9482 17.7031C56.8493 18.9896 56.7503 20.3008 56.6514 21.6367C56.4163 24.8529 56.2432 27.0547 56.1318 28.2422C56.0329 29.4173 55.9772 30.1533 55.9648 30.4502C55.9525 30.7471 55.9339 31.0934 55.9092 31.4893C55.8968 31.8727 55.971 32.0645 56.1318 32.0645C56.2061 32.0645 56.305 32.0026 56.4287 31.8789C58.5316 29.0462 60.2881 26.7083 61.6982 24.8652C63.9495 21.8965 66.1761 18.9463 68.3779 16.0146C68.8232 15.4085 69.0459 14.8643 69.0459 14.3818C69.0459 13.887 68.9655 13.4788 68.8047 13.1572C68.6439 12.8356 68.4336 12.5573 68.1738 12.3223C67.6296 11.8275 67.0234 11.5801 66.3555 11.5801C66.071 11.5801 65.9287 11.4564 65.9287 11.209C65.9287 10.9616 66.0153 10.8379 66.1885 10.8379H75.5586C75.7565 10.8379 75.8555 10.9616 75.8555 11.209C75.8555 11.4564 75.7194 11.5801 75.4473 11.5801H75.1133C73.4062 11.5801 72.46 12.0749 72.2744 13.0645C72.2002 15.3529 72.0579 18.6494 71.8477 22.9541C71.6497 27.2464 71.526 30.1533 71.4766 31.6748C71.4766 31.8356 71.5137 31.916 71.5879 31.916C71.724 31.916 71.9033 31.7428 72.126 31.3965L72.7012 30.5801C73.7402 29.0957 74.804 27.6175 75.8926 26.1455C76.9811 24.6735 77.8161 23.5107 78.3975 22.6572C78.9788 21.7913 79.3932 21.1914 79.6406 20.8574C79.888 20.5111 80.154 20.14 80.4385 19.7441C80.723 19.3483 81.0137 18.9463 81.3105 18.5381C81.6074 18.1175 81.8857 17.734 82.1455 17.3877C82.4053 17.029 82.6279 16.7197 82.8135 16.46C83.0114 16.1878 83.1475 16.0085 83.2217 15.9219C83.2959 15.8229 83.3763 15.7054 83.4629 15.5693C83.5618 15.4209 83.667 15.2725 83.7783 15.124C84.0133 14.7777 84.2174 14.4808 84.3906 14.2334C84.5638 13.9736 84.6504 13.6458 84.6504 13.25C84.6504 12.8542 84.4648 12.4769 84.0938 12.1182C83.735 11.7594 83.2773 11.5801 82.7207 11.5801C82.1764 11.5801 81.9043 11.4564 81.9043 11.209C81.9043 10.9616 82.028 10.8379 82.2754 10.8379H89.1035C89.4128 10.8379 89.5674 10.9616 89.5674 11.209C89.5674 11.4564 89.4189 11.5801 89.1221 11.5801C88.2686 11.5801 87.7119 11.7471 87.4521 12.0811C85.2627 15.0993 82.8258 18.4886 80.1416 22.249C75.6019 28.6318 72.0703 33.5674 69.5469 37.0557C69.3242 37.3525 69.0645 37.501 68.7676 37.501H68.3408C68.0934 37.501 67.9697 37.3402 67.9697 37.0186L67.9883 36.5918C68.0996 34.2663 68.1986 31.9655 68.2852 29.6895C68.3717 27.4134 68.446 25.5456 68.5078 24.0859C68.5697 22.6263 68.6253 21.6058 68.6748 21.0244C68.7243 20.4307 68.749 19.9544 68.749 19.5957V18.8906C68.749 18.3587 68.681 18.0928 68.5449 18.0928C68.4089 18.0928 68.279 18.1732 68.1553 18.334C68.0439 18.4824 67.679 18.9525 67.0605 19.7441C66.4544 20.5234 65.5947 21.6491 64.4814 23.1211C63.3805 24.5931 62.2734 26.0713 61.1602 27.5557C60.0592 29.04 58.9521 30.5244 57.8389 32.0088C56.738 33.4932 55.6309 34.959 54.5176 36.4062L53.9795 37.1299C53.7939 37.3773 53.4785 37.501 53.0332 37.501H52.5879ZM88.5654 35.998C89.7406 35.998 91.1755 35.4785 92.8701 34.4395L93.1299 34.9033C91.8311 35.9053 90.359 36.6598 88.7139 37.167C87.9964 37.3896 87.2604 37.501 86.5059 37.501C85.7637 37.501 85.1328 37.3402 84.6133 37.0186C84.0938 36.7093 83.667 36.2887 83.333 35.7568C82.7145 34.7425 82.4053 33.4313 82.4053 31.8232C82.6527 29.0771 83.6423 26.5352 85.374 24.1973C86.5492 22.6139 87.9593 21.4883 89.6045 20.8203C90.4456 20.474 91.2002 20.3008 91.8682 20.3008C92.5485 20.3008 93.0742 20.3626 93.4453 20.4863C93.8164 20.5977 94.1442 20.7708 94.4287 21.0059C95.0596 21.513 95.375 22.1562 95.375 22.9355C95.375 23.7025 95.208 24.3643 94.874 24.9209C94.5524 25.4775 94.1257 25.96 93.5938 26.3682C93.0618 26.7764 92.4557 27.1289 91.7754 27.4258C91.0951 27.7227 90.4023 27.9824 89.6973 28.2051C89.0046 28.4277 88.318 28.6318 87.6377 28.8174C86.9697 28.9906 86.3822 29.1699 85.875 29.3555C85.4792 30.2832 85.2812 31.2295 85.2812 32.1943C85.2812 33.9261 85.8688 35.0889 87.0439 35.6826C87.4645 35.8929 87.9717 35.998 88.5654 35.998ZM86.1348 28.2422C86.1348 28.4525 86.3018 28.5576 86.6357 28.5576C88.5036 28.0133 89.8395 27.4629 90.6436 26.9062C91.4476 26.3372 92.0537 25.7435 92.4619 25.125C92.8825 24.5065 93.0928 23.7643 93.0928 22.8984C93.0928 22.0202 92.8206 21.445 92.2764 21.1729C92.0908 21.0739 91.7939 21.0244 91.3857 21.0244C90.9899 21.0244 90.5632 21.1481 90.1055 21.3955C89.6478 21.6305 89.2334 21.9521 88.8623 22.3604C88.4912 22.7562 88.1572 23.2077 87.8604 23.7148C87.5635 24.222 87.3037 24.7415 87.0811 25.2734C86.71 26.1641 86.3945 27.1536 86.1348 28.2422ZM108.809 9.31641C112.297 7.42383 114.159 6.47754 114.394 6.47754C114.641 6.47754 114.765 6.68164 114.765 7.08984C114.765 7.22591 114.752 7.41764 114.728 7.66504L109.068 33.6602C109.056 33.7591 109.044 33.8581 109.031 33.957C109.007 34.1302 108.994 34.2972 108.994 34.458C108.994 34.6064 109.044 34.7549 109.143 34.9033C109.242 35.0518 109.347 35.126 109.458 35.126C109.582 35.126 109.73 35.0579 109.903 34.9219C110.089 34.7734 110.274 34.6126 110.46 34.4395C110.979 33.9941 111.301 33.7715 111.425 33.7715C111.623 33.7715 111.722 33.8828 111.722 34.1055C111.722 34.3405 111.054 34.9714 109.718 35.998C108.369 37.0495 107.522 37.5752 107.176 37.5752C106.792 37.5752 106.526 37.3216 106.378 36.8145C106.304 36.5423 106.267 36.2393 106.267 35.9053C106.267 35.5589 106.285 35.2435 106.322 34.959C106.359 34.6745 106.403 34.4209 106.452 34.1982C106.502 33.9632 106.551 33.7467 106.601 33.5488C106.65 33.3385 106.681 33.1283 106.693 32.918C106.706 32.7077 106.662 32.6025 106.563 32.6025C106.427 32.6025 106.124 32.8128 105.654 33.2334C105.184 33.6416 104.751 34.0189 104.355 34.3652C103.96 34.7116 103.539 35.0703 103.094 35.4414C102.661 35.8125 102.234 36.1465 101.813 36.4434C100.861 37.1484 100.162 37.501 99.7168 37.501C99.2715 37.501 98.9066 37.3154 98.6221 36.9443C98.3499 36.5732 98.1396 36.1341 97.9912 35.627C97.7438 34.7611 97.6201 33.889 97.6201 33.0107C97.6201 32.1201 97.7314 31.2295 97.9541 30.3389C98.1891 29.4359 98.5107 28.5267 98.9189 27.6113C99.3395 26.6836 99.8343 25.7868 100.403 24.9209C100.985 24.0426 101.628 23.2633 102.333 22.583C103.892 21.0739 105.481 20.3193 107.102 20.3193C107.522 20.3193 107.85 20.4121 108.085 20.5977C108.53 20.9316 108.833 21.0986 108.994 21.0986C109.155 21.0986 109.248 21.0306 109.272 20.8945L111.573 9.96582C111.623 9.7679 111.647 9.6071 111.647 9.4834C111.647 9.17415 111.511 9.01953 111.239 9.01953C111.004 9.01953 110.689 9.1123 110.293 9.29785C109.91 9.4834 109.495 9.68132 109.05 9.8916L108.809 9.31641ZM101.906 25.8857C100.57 28.7926 99.9827 31.3161 100.144 33.4561C100.205 34.2106 100.385 34.7301 100.682 35.0146C100.979 35.2992 101.319 35.4414 101.702 35.4414C102.593 34.9837 103.551 34.291 104.578 33.3633C105.617 32.4355 106.44 31.6995 107.046 31.1553L108.623 24.0117C108.66 23.8138 108.679 23.6406 108.679 23.4922C108.679 23.3314 108.623 23.1335 108.512 22.8984C108.413 22.6634 108.264 22.4408 108.066 22.2305C107.584 21.7233 106.99 21.4697 106.285 21.4697C105.592 21.4697 104.993 21.6986 104.485 22.1562C103.508 23.0345 102.648 24.2777 101.906 25.8857ZM127.066 9.31641C130.555 7.42383 132.416 6.47754 132.651 6.47754C132.899 6.47754 133.022 6.68164 133.022 7.08984C133.022 7.22591 133.01 7.41764 132.985 7.66504L127.326 33.6602C127.314 33.7591 127.301 33.8581 127.289 33.957C127.264 34.1302 127.252 34.2972 127.252 34.458C127.252 34.6064 127.301 34.7549 127.4 34.9033C127.499 35.0518 127.604 35.126 127.716 35.126C127.84 35.126 127.988 35.0579 128.161 34.9219C128.347 34.7734 128.532 34.6126 128.718 34.4395C129.237 33.9941 129.559 33.7715 129.683 33.7715C129.881 33.7715 129.979 33.8828 129.979 34.1055C129.979 34.3405 129.312 34.9714 127.976 35.998C126.627 37.0495 125.78 37.5752 125.434 37.5752C125.05 37.5752 124.784 37.3216 124.636 36.8145C124.562 36.5423 124.524 36.2393 124.524 35.9053C124.524 35.5589 124.543 35.2435 124.58 34.959C124.617 34.6745 124.66 34.4209 124.71 34.1982C124.759 33.9632 124.809 33.7467 124.858 33.5488C124.908 33.3385 124.939 33.1283 124.951 32.918C124.964 32.7077 124.92 32.6025 124.821 32.6025C124.685 32.6025 124.382 32.8128 123.912 33.2334C123.442 33.6416 123.009 34.0189 122.613 34.3652C122.217 34.7116 121.797 35.0703 121.352 35.4414C120.919 35.8125 120.492 36.1465 120.071 36.4434C119.119 37.1484 118.42 37.501 117.975 37.501C117.529 37.501 117.164 37.3154 116.88 36.9443C116.608 36.5732 116.397 36.1341 116.249 35.627C116.002 34.7611 115.878 33.889 115.878 33.0107C115.878 32.1201 115.989 31.2295 116.212 30.3389C116.447 29.4359 116.769 28.5267 117.177 27.6113C117.597 26.6836 118.092 25.7868 118.661 24.9209C119.243 24.0426 119.886 23.2633 120.591 22.583C122.149 21.0739 123.739 20.3193 125.359 20.3193C125.78 20.3193 126.108 20.4121 126.343 20.5977C126.788 20.9316 127.091 21.0986 127.252 21.0986C127.413 21.0986 127.506 21.0306 127.53 20.8945L129.831 9.96582C129.881 9.7679 129.905 9.6071 129.905 9.4834C129.905 9.17415 129.769 9.01953 129.497 9.01953C129.262 9.01953 128.947 9.1123 128.551 9.29785C128.167 9.4834 127.753 9.68132 127.308 9.8916L127.066 9.31641ZM120.164 25.8857C118.828 28.7926 118.241 31.3161 118.401 33.4561C118.463 34.2106 118.643 34.7301 118.939 35.0146C119.236 35.2992 119.576 35.4414 119.96 35.4414C120.851 34.9837 121.809 34.291 122.836 33.3633C123.875 32.4355 124.698 31.6995 125.304 31.1553L126.881 24.0117C126.918 23.8138 126.937 23.6406 126.937 23.4922C126.937 23.3314 126.881 23.1335 126.77 22.8984C126.671 22.6634 126.522 22.4408 126.324 22.2305C125.842 21.7233 125.248 21.4697 124.543 21.4697C123.85 21.4697 123.25 21.6986 122.743 22.1562C121.766 23.0345 120.906 24.2777 120.164 25.8857ZM140.333 21.9336L137.568 35.293C137.568 35.5651 137.717 35.7012 138.014 35.7012C138.508 35.7012 139.381 35.0456 140.63 33.7344C140.766 33.5983 140.865 33.4993 140.927 33.4375L141.279 33.79C141.057 34.2354 140.562 34.7734 139.795 35.4043C139.028 36.0352 138.465 36.4681 138.106 36.7031C137.315 37.235 136.684 37.501 136.214 37.501C135.756 37.501 135.41 37.334 135.175 37C134.94 36.6536 134.822 36.3568 134.822 36.1094C134.822 35.763 134.853 35.46 134.915 35.2002L137.587 22.6016V22.5273C137.587 22.2552 137.432 22.1191 137.123 22.1191C136.591 22.1191 135.781 22.7067 134.692 23.8818C134.47 24.1292 134.309 24.2962 134.21 24.3828L133.857 24.0303C134.105 23.5479 134.804 22.8366 135.954 21.8965C137.278 20.8327 138.218 20.3008 138.774 20.3008C139.331 20.3008 139.727 20.474 139.962 20.8203C140.209 21.1543 140.333 21.5254 140.333 21.9336ZM139.572 15.458C139.424 15.2354 139.325 15.0436 139.275 14.8828C139.238 14.7096 139.22 14.5241 139.22 14.3262C139.22 14.1283 139.257 13.8438 139.331 13.4727C139.418 13.1016 139.541 12.7428 139.702 12.3965C140.073 11.5801 140.562 11.1719 141.168 11.1719C141.725 11.1719 142.09 11.4811 142.263 12.0996C142.312 12.2728 142.337 12.4583 142.337 12.6562C142.337 12.8542 142.287 13.1325 142.188 13.4912C142.09 13.8499 141.953 14.2025 141.78 14.5488C141.335 15.3652 140.84 15.7734 140.296 15.7734C139.974 15.7734 139.733 15.6683 139.572 15.458ZM149.944 20.3008C150.39 20.3008 150.612 20.7152 150.612 21.5439C150.612 21.915 150.588 22.1995 150.538 22.3975C150.501 22.5954 150.445 22.8613 150.371 23.1953C150.309 23.5293 150.21 24.0303 150.074 24.6982C149.938 25.3538 149.746 26.2939 149.499 27.5186C149.499 27.6546 149.549 27.7227 149.647 27.7227C149.759 27.7227 149.858 27.6732 149.944 27.5742C150.043 27.4629 150.192 27.2959 150.39 27.0732C150.588 26.8506 150.891 26.5042 151.299 26.0342C151.719 25.5518 152.165 25.057 152.635 24.5498C153.117 24.0303 153.612 23.5169 154.119 23.0098C154.639 22.5026 155.152 22.0449 155.659 21.6367C156.81 20.7461 157.762 20.3008 158.517 20.3008C158.888 20.3008 159.209 20.4492 159.481 20.7461C159.766 21.0306 159.908 21.3337 159.908 21.6553C159.908 21.9769 159.89 22.2181 159.853 22.3789L156.55 35.2188V35.293C156.55 35.5651 156.704 35.7012 157.014 35.7012C157.508 35.7012 158.381 35.0456 159.63 33.7344C159.766 33.5983 159.865 33.4993 159.927 33.4375L160.279 33.79C160.032 34.2725 159.333 34.9837 158.183 35.9238C156.859 36.9876 155.863 37.5195 155.195 37.5195C154.824 37.5195 154.496 37.3711 154.212 37.0742C153.94 36.7897 153.804 36.4928 153.804 36.1836C153.804 35.862 153.822 35.6146 153.859 35.4414L157.162 22.6016V22.5273C157.162 22.416 157.106 22.3232 156.995 22.249C156.896 22.1624 156.76 22.1253 156.587 22.1377C156.426 22.1377 156.148 22.2861 155.752 22.583C155.368 22.8675 154.942 23.2386 154.472 23.6963C154.002 24.154 153.507 24.6611 152.987 25.2178C152.48 25.7744 151.992 26.3249 151.521 26.8691C150.235 28.3535 149.48 29.2627 149.258 29.5967C149.048 29.9183 148.905 30.2585 148.831 30.6172L147.495 36.7959C146.642 37.2907 145.986 37.5381 145.528 37.5381C145.071 37.5381 144.842 37.3587 144.842 37C144.842 36.8392 144.873 36.6289 144.935 36.3691C145.046 35.8743 145.114 35.5589 145.139 35.4229L147.625 23.6592V23.585C147.625 23.2386 147.483 23.0654 147.198 23.0654C147.013 23.0654 146.703 23.2881 146.271 23.7334C145.838 24.1663 145.269 24.7415 144.563 25.459L144.118 24.9951C144.39 24.4385 145.38 23.4427 147.087 22.0078C148.448 20.8698 149.4 20.3008 149.944 20.3008ZM177.238 21.7666C177.238 21.9521 177.127 22.0449 176.904 22.0449H174.715C174.764 22.2552 174.826 22.4902 174.9 22.75C174.987 22.9974 175.067 23.2819 175.142 23.6035C175.315 24.3333 175.401 25.1188 175.401 25.96C175.401 26.7887 175.271 27.568 175.012 28.2979C174.764 29.0277 174.43 29.7018 174.01 30.3203C173.317 31.3346 172.266 32.417 170.855 33.5674C170.373 33.9632 169.649 34.3714 168.685 34.792C167.732 35.2126 167.095 35.5218 166.773 35.7197C166.452 35.9176 166.291 36.196 166.291 36.5547C166.291 36.901 166.477 37.2907 166.848 37.7236C167.219 38.1566 167.683 38.5833 168.239 39.0039C168.808 39.4245 169.414 39.8512 170.058 40.2842C170.713 40.7171 171.319 41.1686 171.876 41.6387C173.187 42.7272 173.843 43.7848 173.843 44.8115C173.843 46.6051 172.309 47.8359 169.241 48.5039C168.14 48.7513 167.021 48.875 165.883 48.875C164.745 48.875 163.669 48.8317 162.654 48.7451C161.64 48.6585 160.756 48.4915 160.001 48.2441C158.331 47.7246 157.496 46.8092 157.496 45.498C157.496 44.4837 158.275 43.4385 159.834 42.3623C160.675 41.7809 161.448 41.2985 162.153 40.915C162.858 40.5316 163.328 40.2656 163.563 40.1172C164.256 39.6966 164.658 39.4307 164.77 39.3193C164.708 39.0843 164.627 38.8431 164.528 38.5957C164.429 38.3607 164.38 38.1133 164.38 37.8535C164.38 37.5938 164.423 37.3649 164.51 37.167C164.596 36.9691 164.708 36.7835 164.844 36.6104C164.992 36.4372 165.159 36.2578 165.345 36.0723C165.802 35.6393 166.031 35.3857 166.031 35.3115C166.031 35.2373 165.963 35.1322 165.827 34.9961C165.703 34.8477 165.555 34.6868 165.382 34.5137C165.011 34.1921 164.701 33.9014 164.454 33.6416C164.219 33.3695 164.003 33.0479 163.805 32.6768C163.619 32.3057 163.465 31.9098 163.341 31.4893C163.118 30.6729 163.007 29.875 163.007 29.0957C163.007 28.304 163.143 27.5618 163.415 26.8691C163.687 26.1764 164.058 25.5085 164.528 24.8652C164.998 24.222 165.536 23.6221 166.143 23.0654C166.761 22.5088 167.417 22.0264 168.109 21.6182C169.594 20.7399 171.01 20.3008 172.358 20.3008C175.08 20.3008 176.669 20.4368 177.127 20.709C177.201 20.7461 177.238 20.8141 177.238 20.9131V21.7666ZM160.966 42.7891C160.619 43.1354 160.341 43.4941 160.131 43.8652C159.908 44.2487 159.797 44.7126 159.797 45.2568C159.797 45.8011 159.951 46.2835 160.261 46.7041C160.558 47.137 160.991 47.4772 161.56 47.7246C162.524 48.1328 164.089 48.3369 166.254 48.3369C168.048 48.3369 169.538 47.9782 170.726 47.2607C171.505 46.7907 171.895 46.1969 171.895 45.4795C171.895 44.6631 171.084 43.7044 169.464 42.6035C169.019 42.2943 168.561 41.985 168.091 41.6758L165.345 39.8203C165.147 39.9688 164.868 40.1419 164.51 40.3398C164.163 40.5378 163.786 40.7604 163.378 41.0078C162.97 41.2676 162.549 41.5459 162.116 41.8428C161.696 42.1396 161.312 42.4551 160.966 42.7891ZM172.989 25.0508C172.989 22.4902 172.154 21.21 170.484 21.21C169.569 21.21 168.709 21.7109 167.905 22.7129C166.854 24.0736 166.149 25.9043 165.79 28.2051C165.679 28.8854 165.623 29.4792 165.623 29.9863C165.623 30.4811 165.66 30.9635 165.734 31.4336C165.821 31.8913 165.963 32.3118 166.161 32.6953C166.619 33.6107 167.299 34.0684 168.202 34.0684C168.784 34.0684 169.39 33.7467 170.021 33.1035C170.664 32.4479 171.152 31.8171 171.486 31.2109C171.833 30.6048 172.117 29.9678 172.34 29.2998C172.773 28.001 172.989 26.5846 172.989 25.0508Z" fill="#79816B"/>
<path d="M16.0702 83.78C11.2302 83.78 7.45016 82.64 4.73016 80.36C2.29016 78.32 1.07016 75.7 1.07016 72.5C1.07016 68.94 2.55016 65.74 5.51016 62.9C8.79016 59.74 13.1102 57.9 18.4702 57.38C18.0302 56.74 17.6502 56.06 17.3302 55.34C16.2102 55.3 15.1302 55.22 14.0902 55.1C13.0502 54.94 12.0702 54.76 11.1502 54.56C7.83016 53.76 5.25016 52.48 3.41016 50.72C1.73016 49.08 0.890156 47.3 0.890156 45.38C0.890156 43.22 1.93016 41.4 4.01016 39.92C6.09016 38.52 8.71016 37.82 11.8702 37.82C13.3902 37.82 14.9302 38 16.4902 38.36C18.0502 38.68 19.6102 39.22 21.1702 39.98C21.2902 40.02 21.3502 40.14 21.3502 40.34C21.3502 40.74 21.1702 40.86 20.8102 40.7C17.8902 39.3 15.0302 38.6 12.2302 38.6C9.75016 38.6 7.77016 39.22 6.29016 40.46C4.81016 41.7 4.07016 43.32 4.07016 45.32C4.07016 47.12 4.73016 48.78 6.05016 50.3C7.57016 51.98 9.63016 53.12 12.2302 53.72C12.9902 53.88 13.7702 54.02 14.5702 54.14C15.3702 54.26 16.1902 54.34 17.0302 54.38C16.8702 53.74 16.7902 53 16.7902 52.16C16.7902 49.32 17.9302 46.76 20.2102 44.48C22.9302 41.76 26.7902 39.98 31.7902 39.14C32.3102 39.06 32.8102 39 33.2902 38.96C33.8102 38.92 34.3102 38.9 34.7902 38.9C36.9502 38.9 38.7102 39.36 40.0702 40.28C41.4302 41.16 42.1102 42.34 42.1102 43.82C42.1102 46.14 40.4902 48.44 37.2502 50.72C33.1302 53.56 27.3702 55.1 19.9702 55.34C20.0102 55.98 20.1702 56.6 20.4502 57.2C21.1302 57.16 21.8102 57.16 22.4902 57.2C23.1702 57.2 23.8502 57.22 24.5302 57.26C25.9702 57.38 26.6902 57.92 26.6902 58.88C26.6902 59.8 25.9102 60.26 24.3502 60.26C22.3102 60.26 20.5902 59.56 19.1902 58.16C15.5102 58.76 12.4902 60.62 10.1302 63.74C8.01016 66.66 6.95016 69.84 6.95016 73.28C6.95016 76.08 7.69016 78.34 9.17016 80.06C10.7702 82.02 13.0702 83 16.0702 83C17.9902 83 19.8102 82.6 21.5302 81.8C23.2502 81 24.7902 79.96 26.1502 78.68C27.5102 77.4 28.5702 76.06 29.3302 74.66C30.1302 73.26 30.5302 71.96 30.5302 70.76C30.5302 69.64 30.1102 68.72 29.2702 68C28.4702 67.24 27.1502 66.86 25.3102 66.86C24.0702 66.86 22.7302 67.16 21.2902 67.76C19.8902 68.32 18.5302 69.06 17.2102 69.98C15.8902 70.86 14.7502 71.78 13.7902 72.74C12.8302 73.7 12.1902 74.54 11.8702 75.26C11.7902 75.5 11.6302 75.56 11.3902 75.44C11.1502 75.32 11.0702 75.14 11.1502 74.9C11.5902 73.86 12.3102 72.8 13.3102 71.72C14.3102 70.64 15.4902 69.62 16.8502 68.66C18.2102 67.7 19.6702 66.94 21.2302 66.38C22.7902 65.78 24.3702 65.48 25.9702 65.48C29.0102 65.48 31.2102 66.02 32.5702 67.1C33.9302 68.18 34.6102 69.48 34.6102 71C34.6102 72.36 34.1502 73.78 33.2302 75.26C32.3102 76.74 31.0102 78.14 29.3302 79.46C27.6902 80.74 25.7302 81.78 23.4502 82.58C21.2102 83.38 18.7502 83.78 16.0702 83.78ZM19.9702 54.32C26.2102 54 31.4302 52.38 35.6302 49.46C39.0302 47.06 40.7302 44.98 40.7302 43.22C40.7302 41.42 39.2702 40.52 36.3502 40.52C32.3902 40.52 28.5702 42.16 24.8902 45.44C21.8502 48.12 20.2102 51.08 19.9702 54.32ZM42.1064 80.42C39.4264 80.42 38.0864 78.76 38.0864 75.44C38.0864 73.56 38.5064 71.58 39.3464 69.5C39.9864 67.94 40.6264 66.42 41.2664 64.94C41.9464 63.46 42.6064 62.04 43.2464 60.68C43.6864 59.84 44.4664 59.42 45.5864 59.42H49.2464C48.5264 59.94 47.8464 60.62 47.2064 61.46C46.5664 62.3 45.9664 63.3 45.4064 64.46C42.8064 69.74 41.5064 73.52 41.5064 75.8C41.5064 77.56 42.2064 78.44 43.6064 78.44C46.0064 78.44 48.5264 75.14 51.1664 68.54C50.6464 67.46 50.3864 66.18 50.3864 64.7C50.3864 63.98 50.4864 63.26 50.6864 62.54C51.1264 61.06 51.7864 59.94 52.6664 59.18C53.4664 58.46 54.2064 58.1 54.8864 58.1C55.6064 58.1 55.9664 58.42 55.9664 59.06L55.6664 60.14C54.7864 62.86 53.9464 65.26 53.1464 67.34C52.3864 69.38 51.6464 71.1 50.9264 72.5C48.1664 77.78 45.2264 80.42 42.1064 80.42ZM60.4688 80.24C58.9088 80.24 57.5688 79.74 56.4488 78.74C55.8488 78.18 55.4088 77.54 55.1288 76.82C54.8888 76.06 54.7688 75.2 54.7688 74.24C54.7688 70.56 56.2888 66.9 59.3288 63.26C61.8888 60.18 64.5488 58.64 67.3088 58.64C68.2288 58.64 69.0088 58.88 69.6488 59.36C70.3288 59.92 70.6688 60.64 70.6688 61.52C70.6688 63.72 69.2088 65.92 66.2888 68.12C65.3688 68.8 64.1488 69.4 62.6288 69.92C60.9488 70.48 59.7288 70.76 58.9688 70.76C58.4088 72.12 58.1288 73.56 58.1288 75.08C58.1288 77.68 59.0888 78.98 61.0088 78.98C63.5288 78.98 65.8888 77.34 68.0888 74.06L68.3288 73.7L69.3488 74.12L69.1688 74.48C68.1688 76.48 66.9088 77.94 65.3888 78.86C63.8688 79.78 62.2288 80.24 60.4688 80.24ZM59.3288 69.74C60.0088 69.74 60.9488 69.52 62.1488 69.08C62.8288 68.8 63.4688 68.5 64.0688 68.18C64.7088 67.86 65.2688 67.5 65.7488 67.1C67.9488 65.26 69.0488 63.32 69.0488 61.28C69.0488 60.4 68.7288 59.96 68.0888 59.96C66.9688 59.96 65.2688 61.34 62.9888 64.1C61.8288 65.5 60.6088 67.38 59.3288 69.74ZM69.4477 80.42C70.2477 78.46 71.2477 76.04 72.4477 73.16C73.6477 70.28 75.1077 66.96 76.8277 63.2C77.1877 62.4 77.5277 61.74 77.8477 61.22C78.1677 60.7 78.4677 60.3 78.7477 60.02C79.3077 59.46 80.0277 59.18 80.9077 59.18C80.9877 59.18 81.1277 59.18 81.3277 59.18C81.5277 59.18 81.8077 59.22 82.1677 59.3C82.7277 59.34 83.1477 59.34 83.4277 59.3C81.9477 60.18 79.7277 64.06 76.7677 70.94C77.2477 70.26 77.8877 69.52 78.6877 68.72C79.5277 67.88 80.5077 66.96 81.6277 65.96C82.3477 65.28 83.1477 64.64 84.0277 64.04C84.9077 63.4 85.8677 62.8 86.9077 62.24C89.2677 60.92 91.0077 60.26 92.1277 60.26C92.4077 60.26 92.6077 60.28 92.7277 60.32C92.0877 61.44 91.4877 62.52 90.9277 63.56C90.4077 64.6 89.9077 65.58 89.4277 66.5C87.1077 70.98 85.8077 74.08 85.5277 75.8C85.4877 76.08 85.4477 76.34 85.4077 76.58C85.4077 76.82 85.4077 77.04 85.4077 77.24C85.4077 78.28 85.7877 78.8 86.5477 78.8C87.7877 78.8 89.2677 77.54 90.9877 75.02L91.8277 75.62C89.7877 78.7 87.7277 80.24 85.6477 80.24C83.1277 80.24 81.8677 78.94 81.8677 76.34C81.8677 74.22 83.1677 71.08 85.7677 66.92C86.1677 66.28 86.3677 65.74 86.3677 65.3C86.3677 64.82 86.1477 64.58 85.7077 64.58C85.2677 64.58 84.6877 64.82 83.9677 65.3C83.2877 65.74 82.4677 66.4 81.5077 67.28C79.9877 68.68 78.5677 70.36 77.2477 72.32C75.9277 74.24 74.7277 76.44 73.6477 78.92C73.4077 79.52 72.7877 79.88 71.7877 80C70.5077 80.12 69.7277 80.26 69.4477 80.42ZM98.7234 80C96.1234 80 94.8234 78.58 94.8234 75.74C94.8234 75.18 94.8634 74.6 94.9434 74C95.0634 73.4 95.2434 72.8 95.4834 72.2C97.6034 66.6 99.4034 62.04 100.883 58.52H96.9834L97.7034 57.2H101.423L102.863 53C103.383 51.52 103.823 50.64 104.183 50.36C104.463 50.16 105.103 50.06 106.103 50.06L108.683 50.12C107.883 50.8 107.283 51.62 106.883 52.58L104.903 57.2H109.463L108.743 58.52H104.363C104.083 59.16 103.803 59.8 103.523 60.44C103.283 61.08 103.003 61.74 102.683 62.42C101.843 64.26 101.123 66 100.523 67.64C99.8034 69.52 99.2234 71.14 98.7834 72.5C98.3834 73.86 98.1434 74.94 98.0634 75.74C97.9034 77.7 98.4234 78.68 99.6234 78.68C100.743 78.68 102.103 77.48 103.703 75.08L104.423 75.92C102.503 78.64 100.603 80 98.7234 80ZM111.488 80.24C109.488 80.24 107.948 79.64 106.868 78.44C105.988 77.44 105.548 76.24 105.548 74.84C105.548 72.8 106.188 71.78 107.468 71.78C107.948 71.78 108.388 71.96 108.788 72.32C109.188 72.72 109.388 73.18 109.388 73.7C109.388 74.02 109.308 74.28 109.148 74.48C108.628 75.12 108.368 75.82 108.368 76.58C108.368 77.34 108.608 77.96 109.088 78.44C109.608 78.96 110.268 79.22 111.068 79.22C111.908 79.22 112.668 78.94 113.348 78.38C114.268 77.54 114.728 76.38 114.728 74.9C114.728 73.62 114.388 72.18 113.708 70.58C113.428 70.18 113.088 69.66 112.688 69.02C112.328 68.38 111.908 67.62 111.428 66.74C111.148 66.26 110.948 65.78 110.828 65.3C110.748 64.78 110.708 64.28 110.708 63.8C110.708 62.12 111.328 60.78 112.568 59.78C113.848 58.74 115.488 58.22 117.488 58.22C118.048 58.22 118.588 58.28 119.108 58.4C119.668 58.52 120.168 58.74 120.608 59.06C121.528 59.74 121.988 60.58 121.988 61.58C121.988 62.02 121.908 62.42 121.748 62.78C121.388 63.82 120.608 64.34 119.408 64.34C118.088 64.34 117.428 63.66 117.428 62.3C117.428 61.9 117.488 61.56 117.608 61.28C117.728 60.88 118.168 60.48 118.928 60.08C118.648 59.56 118.128 59.3 117.368 59.3C116.688 59.3 116.188 59.46 115.868 59.78C114.908 60.62 114.428 61.68 114.428 62.96C114.428 63.84 114.668 64.8 115.148 65.84C115.228 66 116.008 67.26 117.488 69.62C118.488 71.22 118.988 72.56 118.988 73.64C118.988 75.36 118.188 76.88 116.588 78.2C114.988 79.56 113.288 80.24 111.488 80.24Z" fill="url(#paint0_linear_19_75)"/>
<g clip-path="url(#clip0_19_75)">
<path fill-rule="evenodd" clip-rule="evenodd" d="M141.846 66.8617C149.224 65.698 154.032 81.0025 132.218 79.7183C124.846 59.1492 140.886 59.4544 141.846 66.8617Z" fill="url(#paint1_linear_19_75)"/>
</g>
<path d="M22.0596 11.1755C16.6957 10.3297 12.1955 15.4911 13.0827 20.6755C13.5203 23.2318 15.2879 25.8436 19.0633 27.7092C22.8018 29.5565 28.5027 30.6635 36.7641 30.2147C39.5203 22.4139 40.0629 16.6323 39.3426 12.525C38.6151 8.37687 36.6061 5.94517 34.276 4.80573C29.5507 2.49512 23.3315 5.36081 22.6334 10.7459L22.5678 11.2562L22.0596 11.1755Z" stroke="url(#paint2_linear_19_75)"/>
<defs>
<linearGradient id="paint0_linear_19_75" x1="60" y1="32" x2="60" y2="101" gradientUnits="userSpaceOnUse">
<stop stop-color="#55633B"/>
<stop offset="1" stop-color="#475037"/>
</linearGradient>
<linearGradient id="paint1_linear_19_75" x1="142.77" y1="65.6273" x2="132.218" y2="79.7183" gradientUnits="userSpaceOnUse">
<stop stop-color="#1E1E1E"/>
<stop offset="1" stop-color="#55633B"/>
</linearGradient>
<linearGradient id="paint2_linear_19_75" x1="20.6988" y1="8.76021" x2="37.1247" y2="30.6962" gradientUnits="userSpaceOnUse">
<stop stop-color="#475037"/>
<stop offset="1" stop-color="#1E1E1E"/>
</linearGradient>
<clipPath id="clip0_19_75">
<rect width="18.7772" height="18.7772" fill="white" transform="translate(135.255 60) rotate(36.8263)"/>
</clipPath>
</defs>
</svg>
