<svg width="48" height="53" viewBox="0 0 48 53" fill="none" xmlns="http://www.w3.org/2000/svg">
<path d="M35.3214 8.50752C36.2837 7.94079 37.3751 7.63293 38.4894 7.61388C39.6037 7.59484 40.703 7.86526 41.6802 8.39884C42.4245 8.80539 43.0811 9.35522 43.6125 10.0169C44.1439 10.6786 44.5396 11.4392 44.777 12.2553C45.0145 13.0714 45.089 13.9269 44.9964 14.773C44.9037 15.6191 44.6458 16.4392 44.2371 17.1864C43.8445 17.9049 43.3324 18.5144 42.7446 19.015C37.9121 23.403 26.403 24.8263 26.403 24.8263C26.403 24.8263 21.3856 14.3712 22.4701 7.93397C22.5753 7.1478 22.8235 6.38715 23.2024 5.68986C23.6107 4.94252 24.1616 4.28261 24.8237 3.74782C25.4858 3.21303 26.246 2.81384 27.0611 2.57306C27.8761 2.33228 28.7299 2.25462 29.5737 2.34452C30.4175 2.43442 31.2348 2.69011 31.9788 3.097C32.9556 3.63127 33.7769 4.41041 34.3626 5.35855C34.9484 6.3067 35.2787 7.39156 35.3214 8.50752Z" stroke="#2F3B1A" stroke-width="2" stroke-linecap="round" stroke-linejoin="round"/>
<path d="M16.3572 22.991C15.0587 22.2443 13.5817 21.8461 12.07 21.8353C10.5582 21.8245 9.06313 22.2013 7.73031 22.9293C6.71494 23.4838 5.81676 24.2293 5.08706 25.1231C4.35737 26.0169 3.81047 27.0414 3.4776 28.1383C3.14474 29.2351 3.03243 30.3826 3.1471 31.5154C3.26177 32.6482 3.60117 33.744 4.14591 34.7401C4.66888 35.6971 5.35672 36.5067 6.1479 37.17C12.6473 42.9884 28.2454 44.7464 28.2454 44.7464C28.2454 44.7464 35.1913 30.668 33.8041 22.0556C33.6713 21.0035 33.3441 19.9874 32.8387 19.0581C32.2944 18.0618 31.5554 17.1845 30.664 16.4764C29.7725 15.7683 28.7461 15.2432 27.6432 14.9311C26.5404 14.619 25.3829 14.5261 24.2366 14.6576C23.0904 14.7891 21.9781 15.1424 20.963 15.6975C19.6306 16.4261 18.506 17.4809 17.6987 18.7591C16.8914 20.0373 16.4299 21.4949 16.3572 22.991Z" stroke="#2F3B1A" stroke-width="2" stroke-linecap="round" stroke-linejoin="round"/>
</svg>
