<svg width="59" height="51" viewBox="0 0 59 51" fill="none" xmlns="http://www.w3.org/2000/svg">
<path d="M30.1493 29.3999C32.1193 29.6019 33.9443 30.5273 35.2714 31.9972C36.5984 33.4671 37.3331 35.3769 37.3333 37.3572C37.3333 41.4692 34.8267 44.8719 31.456 47.1172C28.0693 49.3786 23.536 50.6906 18.6667 50.6906C13.7973 50.6906 9.264 49.3786 5.87733 47.1172C2.50133 44.8772 0 41.4692 0 37.3572C0 35.2355 0.842855 33.2007 2.34315 31.7004C3.84344 30.2001 5.87827 29.3572 8 29.3572H29.3333L30.1493 29.3999ZM50.6827 29.3572C52.8044 29.3572 54.8392 30.2001 56.3395 31.7004C57.8398 33.2007 58.6827 35.2355 58.6827 37.3572C58.6827 41.0639 56.3787 43.8159 53.44 45.5066C50.5173 47.1866 46.6933 48.0239 42.6827 48.0239C41.3316 48.0203 40.0142 47.9208 38.7307 47.7252C41.04 44.9946 42.672 41.5066 42.672 37.3572C42.6659 34.4699 41.7226 31.6625 39.984 29.3572H50.6827ZM18.6773 0.00255449C20.2763 -0.0304193 21.8657 0.256119 23.3524 0.845374C24.8392 1.43463 26.1933 2.31474 27.3355 3.43413C28.4777 4.55351 29.385 5.88964 30.0041 7.3642C30.6232 8.83876 30.9418 10.4221 30.9411 12.0213C30.9404 13.6206 30.6204 15.2036 30 16.6776C29.3795 18.1516 28.4711 19.487 27.3279 20.6053C26.1847 21.7237 24.8298 22.6026 23.3425 23.1906C21.8552 23.7785 20.2656 24.0636 18.6667 24.0292C15.5244 23.963 12.5331 22.6682 10.3342 20.4225C8.13527 18.1768 6.9038 15.1589 6.9038 12.0159C6.9038 8.87289 8.13527 5.85499 10.3342 3.60927C12.5331 1.36354 15.5244 0.068767 18.6667 0.00255449M44 5.34122C45.2257 5.34122 46.4393 5.58264 47.5717 6.05168C48.7041 6.52072 49.733 7.20821 50.5997 8.07489C51.4664 8.94157 52.1538 9.97047 52.6229 11.1028C53.0919 12.2352 53.3333 13.4489 53.3333 14.6746C53.3333 15.9002 53.0919 17.1139 52.6229 18.2463C52.1538 19.3786 51.4664 20.4075 50.5997 21.2742C49.733 22.1409 48.7041 22.8284 47.5717 23.2974C46.4393 23.7665 45.2257 24.0079 44 24.0079C41.5246 24.0079 39.1507 23.0246 37.4003 21.2742C35.65 19.5239 34.6667 17.1499 34.6667 14.6746C34.6667 12.1992 35.65 9.82523 37.4003 8.07489C39.1507 6.32455 41.5246 5.34122 44 5.34122Z" fill="#2F3B1A"/>
</svg>
