<svg width="40" height="40" viewBox="0 0 40 40" fill="none" xmlns="http://www.w3.org/2000/svg">
<path d="M37.5 32.5H36.25V13.75C36.25 13.4185 36.1183 13.1005 35.8839 12.8661C35.6495 12.6317 35.3315 12.5 35 12.5H25C24.6685 12.5 24.3505 12.6317 24.1161 12.8661C23.8817 13.1005 23.75 13.4185 23.75 13.75V20H16.25V6.25C16.25 5.91848 16.1183 5.60054 15.8839 5.36612C15.6495 5.1317 15.3315 5 15 5H5C4.66848 5 4.35054 5.1317 4.11612 5.36612C3.8817 5.60054 3.75 5.91848 3.75 6.25V32.5H2.5C2.16848 32.5 1.85054 32.6317 1.61612 32.8661C1.3817 33.1005 1.25 33.4185 1.25 33.75C1.25 34.0815 1.3817 34.3995 1.61612 34.6339C1.85054 34.8683 2.16848 35 2.5 35H37.5C37.8315 35 38.1495 34.8683 38.3839 34.6339C38.6183 34.3995 38.75 34.0815 38.75 33.75C38.75 33.4185 38.6183 33.1005 38.3839 32.8661C38.1495 32.6317 37.8315 32.5 37.5 32.5ZM26.25 15H33.75V32.5H26.25V15ZM23.75 22.5V32.5H16.25V22.5H23.75ZM6.25 7.5H13.75V32.5H6.25V7.5ZM11.25 11.25V13.75C11.25 14.0815 11.1183 14.3995 10.8839 14.6339C10.6495 14.8683 10.3315 15 10 15C9.66848 15 9.35054 14.8683 9.11612 14.6339C8.8817 14.3995 8.75 14.0815 8.75 13.75V11.25C8.75 10.9185 8.8817 10.6005 9.11612 10.3661C9.35054 10.1317 9.66848 10 10 10C10.3315 10 10.6495 10.1317 10.8839 10.3661C11.1183 10.6005 11.25 10.9185 11.25 11.25ZM11.25 18.75V21.25C11.25 21.5815 11.1183 21.8995 10.8839 22.1339C10.6495 22.3683 10.3315 22.5 10 22.5C9.66848 22.5 9.35054 22.3683 9.11612 22.1339C8.8817 21.8995 8.75 21.5815 8.75 21.25V18.75C8.75 18.4185 8.8817 18.1005 9.11612 17.8661C9.35054 17.6317 9.66848 17.5 10 17.5C10.3315 17.5 10.6495 17.6317 10.8839 17.8661C11.1183 18.1005 11.25 18.4185 11.25 18.75ZM11.25 26.25V28.75C11.25 29.0815 11.1183 29.3995 10.8839 29.6339C10.6495 29.8683 10.3315 30 10 30C9.66848 30 9.35054 29.8683 9.11612 29.6339C8.8817 29.3995 8.75 29.0815 8.75 28.75V26.25C8.75 25.9185 8.8817 25.6005 9.11612 25.3661C9.35054 25.1317 9.66848 25 10 25C10.3315 25 10.6495 25.1317 10.8839 25.3661C11.1183 25.6005 11.25 25.9185 11.25 26.25ZM18.75 28.75V26.25C18.75 25.9185 18.8817 25.6005 19.1161 25.3661C19.3505 25.1317 19.6685 25 20 25C20.3315 25 20.6495 25.1317 20.8839 25.3661C21.1183 25.6005 21.25 25.9185 21.25 26.25V28.75C21.25 29.0815 21.1183 29.3995 20.8839 29.6339C20.6495 29.8683 20.3315 30 20 30C19.6685 30 19.3505 29.8683 19.1161 29.6339C18.8817 29.3995 18.75 29.0815 18.75 28.75ZM28.75 28.75V26.25C28.75 25.9185 28.8817 25.6005 29.1161 25.3661C29.3505 25.1317 29.6685 25 30 25C30.3315 25 30.6495 25.1317 30.8839 25.3661C31.1183 25.6005 31.25 25.9185 31.25 26.25V28.75C31.25 29.0815 31.1183 29.3995 30.8839 29.6339C30.6495 29.8683 30.3315 30 30 30C29.6685 30 29.3505 29.8683 29.1161 29.6339C28.8817 29.3995 28.75 29.0815 28.75 28.75ZM28.75 21.25V18.75C28.75 18.4185 28.8817 18.1005 29.1161 17.8661C29.3505 17.6317 29.6685 17.5 30 17.5C30.3315 17.5 30.6495 17.6317 30.8839 17.8661C31.1183 18.1005 31.25 18.4185 31.25 18.75V21.25C31.25 21.5815 31.1183 21.8995 30.8839 22.1339C30.6495 22.3683 30.3315 22.5 30 22.5C29.6685 22.5 29.3505 22.3683 29.1161 22.1339C28.8817 21.8995 28.75 21.5815 28.75 21.25Z" fill="#0D4A41"/>
</svg>
