<svg width="40" height="40" viewBox="0 0 40 40" fill="none" xmlns="http://www.w3.org/2000/svg">
<path d="M36.875 21.4063C36.5992 24.6126 35.4133 27.6735 33.457 30.2288C31.5007 32.7841 28.8552 34.7275 25.8319 35.8304C22.8086 36.9333 19.5332 37.1497 16.391 36.4543C13.2489 35.7589 10.3707 34.1806 8.09507 31.905C5.81947 29.6294 4.24112 26.7512 3.54571 23.609C2.85031 20.4668 3.06678 17.1914 4.16966 14.1681C5.27253 11.1448 7.21594 8.49937 9.77123 6.54304C12.3265 4.58671 15.3874 3.40087 18.5938 3.12503C19.091 3.08359 19.5844 3.2414 19.9653 3.56372C20.3463 3.88605 20.5836 4.3465 20.625 4.84378C20.6664 5.34107 20.5086 5.83444 20.1863 6.21537C19.864 6.59631 19.4035 6.83359 18.9062 6.87503C16.4115 7.08898 14.0298 8.01107 12.0413 9.53278C10.0529 11.0545 8.5405 13.1125 7.6821 15.4647C6.82369 17.8168 6.65501 20.3653 7.19591 22.81C7.7368 25.2548 8.96476 27.4942 10.7353 29.2648C12.5058 31.0353 14.7452 32.2632 17.19 32.8041C19.6348 33.345 22.1832 33.1763 24.5353 32.3179C26.8875 31.4595 28.9455 29.9471 30.4673 27.9587C31.989 25.9702 32.9111 23.5885 33.125 21.0938C33.1455 20.8476 33.2143 20.6078 33.3275 20.3881C33.4407 20.1685 33.596 19.9733 33.7847 19.8137C33.9733 19.6541 34.1915 19.5332 34.4268 19.458C34.6622 19.3827 34.91 19.3545 35.1562 19.375C35.4025 19.3956 35.6423 19.4644 35.8619 19.5776C36.0815 19.6907 36.2767 19.8461 36.4363 20.0347C36.5959 20.2233 36.7168 20.4415 36.7921 20.6769C36.8673 20.9122 36.8955 21.1601 36.875 21.4063ZM18.125 11.875V20C18.125 20.4973 18.3225 20.9742 18.6742 21.3259C19.0258 21.6775 19.5027 21.875 20 21.875H28.125C28.6223 21.875 29.0992 21.6775 29.4508 21.3259C29.8025 20.9742 30 20.4973 30 20C30 19.5028 29.8025 19.0258 29.4508 18.6742C29.0992 18.3226 28.6223 18.125 28.125 18.125H21.875V11.875C21.875 11.3778 21.6775 10.9008 21.3258 10.5492C20.9742 10.1976 20.4973 10 20 10C19.5027 10 19.0258 10.1976 18.6742 10.5492C18.3225 10.9008 18.125 11.3778 18.125 11.875ZM32.5 15C32.9945 15 33.4778 14.8534 33.8889 14.5787C34.3 14.304 34.6205 13.9136 34.8097 13.4567C34.9989 12.9999 35.0484 12.4973 34.952 12.0123C34.8555 11.5274 34.6174 11.0819 34.2678 10.7323C33.9181 10.3826 33.4727 10.1445 32.9877 10.0481C32.5028 9.95161 32.0001 10.0011 31.5433 10.1903C31.0865 10.3796 30.696 10.7 30.4213 11.1111C30.1466 11.5222 30 12.0056 30 12.5C30 13.1631 30.2634 13.799 30.7322 14.2678C31.2011 14.7366 31.837 15 32.5 15ZM27.5 10C27.9945 10 28.4778 9.85341 28.8889 9.57871C29.3 9.304 29.6205 8.91356 29.8097 8.45674C29.9989 7.99993 30.0484 7.49726 29.952 7.01231C29.8555 6.52736 29.6174 6.0819 29.2678 5.73227C28.9181 5.38264 28.4727 5.14453 27.9877 5.04807C27.5028 4.95161 27.0001 5.00112 26.5433 5.19034C26.0865 5.37955 25.696 5.69999 25.4213 6.11111C25.1466 6.52223 25 7.00558 25 7.50003C25 8.16308 25.2634 8.79896 25.7322 9.2678C26.2011 9.73664 26.837 10 27.5 10Z" fill="#0D4A41"/>
</svg>
