<svg width="40" height="40" viewBox="0 0 40 40" fill="none" xmlns="http://www.w3.org/2000/svg">
<path d="M24.16 3.33337H15.8267C15.1636 3.33337 14.5277 3.59677 14.0589 4.06561C13.5901 4.53445 13.3267 5.17033 13.3267 5.83337C13.3267 6.49642 13.5901 7.1323 14.0589 7.60114C14.5277 8.06998 15.1636 8.33337 15.8267 8.33337H24.16C24.823 8.33337 25.4589 8.06998 25.9278 7.60114C26.3966 7.1323 26.66 6.49642 26.66 5.83337C26.66 5.17033 26.3966 4.53445 25.9278 4.06561C25.4589 3.59677 24.823 3.33337 24.16 3.33337Z" stroke="#0D4A41" stroke-width="2.5" stroke-linecap="round" stroke-linejoin="round"/>
<path d="M26.66 5.83337C29.25 5.91171 30.7933 6.20004 31.8617 7.27004C33.3283 8.73337 33.3283 11.09 33.3283 15.8034V26.6667C33.3283 31.38 33.3283 33.7367 31.8617 35.2017C30.3983 36.6667 28.04 36.6667 23.3283 36.6667H16.6617C11.945 36.6667 9.58833 36.6667 8.125 35.2017C6.66167 33.7367 6.66 31.38 6.66 26.6667V15.805C6.66 11.0917 6.66 8.73337 8.125 7.27004C9.19333 6.20004 10.7383 5.91171 13.3267 5.83337" stroke="#0D4A41" stroke-width="2.5" stroke-linecap="round" stroke-linejoin="round"/>
<path d="M12.4933 18.3334L14.16 20L17.4933 15.8334M21.66 28.3334H26.66M21.66 18.3334H26.66" stroke="#0D4A41" stroke-width="2.5" stroke-linecap="round" stroke-linejoin="round"/>
<path d="M14.1433 28.1134H14.16" stroke="#0D4A41" stroke-width="2.5" stroke-linecap="round" stroke-linejoin="round"/>
</svg>
