<svg width="35" height="35" viewBox="0 0 35 35" fill="none" xmlns="http://www.w3.org/2000/svg">
<path d="M25.2335 13.8891L29.874 18.5296C30.627 19.2725 31.2255 20.1571 31.6353 21.1324C32.045 22.1076 32.2577 23.1543 32.2613 24.2121C32.2648 25.27 32.0591 26.318 31.6559 27.296C31.2527 28.274 30.6601 29.1626 29.9121 29.9106C29.1641 30.6586 28.2755 31.2512 27.2975 31.6544C26.3195 32.0576 25.2715 32.2633 24.2136 32.2598C23.1558 32.2563 22.1091 32.0435 21.1339 31.6338C20.1586 31.2241 19.274 30.6255 18.531 29.8725L16.9852 28.3266C16.7762 28.1249 16.6094 27.8836 16.4947 27.6168C16.3799 27.35 16.3194 27.063 16.3168 26.7725C16.3141 26.4821 16.3693 26.194 16.4792 25.9251C16.589 25.6562 16.7513 25.4119 16.9566 25.2064C17.1619 25.0009 17.4061 24.8384 17.6749 24.7283C17.9437 24.6182 18.2317 24.5627 18.5221 24.5651C18.8126 24.5674 19.0997 24.6277 19.3666 24.7422C19.6335 24.8567 19.875 25.0232 20.0769 25.2321L21.6256 26.7793C22.3105 27.458 23.2363 27.8378 24.2004 27.8356C25.1646 27.8333 26.0886 27.4492 26.7703 26.7674C27.452 26.0855 27.8358 25.1614 27.8378 24.1972C27.8397 23.233 27.4597 22.3073 26.7808 21.6227L22.1404 16.9823C21.6389 16.4805 21.0018 16.1359 20.3073 15.9909C19.6128 15.8458 18.8911 15.9065 18.2306 16.1656C17.9953 16.2589 17.7747 16.3542 17.5685 16.4514L16.8919 16.7679C15.9877 17.1762 15.2921 17.3512 14.4069 16.4675C13.1352 15.1958 13.4648 14.0218 15.015 12.9529C16.5592 11.8903 18.4269 11.4021 20.2936 11.5731C22.1603 11.7442 23.9081 12.5636 25.2335 13.8891ZM16.469 5.12455L18.0148 6.67038C18.4135 7.08276 18.6342 7.63523 18.6295 8.20879C18.6248 8.78235 18.395 9.33111 17.9896 9.73689C17.5842 10.1427 17.0357 10.373 16.4621 10.3782C15.8886 10.3835 15.3359 10.1632 14.9231 9.76497L13.3758 8.21914C13.0396 7.87083 12.6374 7.59297 12.1926 7.40177C11.7479 7.21057 11.2695 7.10986 10.7854 7.10552C10.3013 7.10117 9.82123 7.19328 9.37312 7.37647C8.92501 7.55966 8.51787 7.83026 8.17545 8.17248C7.83304 8.5147 7.56221 8.92169 7.37877 9.36969C7.19533 9.8177 7.10295 10.2978 7.10701 10.7818C7.11108 11.2659 7.21152 11.7444 7.40247 12.1892C7.59342 12.6341 7.87105 13.0365 8.21917 13.3729L12.8596 18.0133C13.3611 18.5151 13.9982 18.8596 14.6927 19.0047C15.3872 19.1497 16.1089 19.089 16.7694 18.83C17.0047 18.7366 17.2253 18.6414 17.4315 18.5441L18.1081 18.2277C19.0123 17.8193 19.7094 17.6443 20.5931 18.5281C21.8648 19.7998 21.5352 20.9737 19.985 22.0427C18.4408 23.1053 16.5731 23.5935 14.7064 23.4224C12.8397 23.2514 11.0919 22.432 9.76646 21.1064L5.12604 16.466C4.37305 15.723 3.77446 14.8385 3.36473 13.8632C2.95501 12.8879 2.74226 11.8412 2.73871 10.7834C2.73517 9.7256 2.94091 8.67752 3.34409 7.69953C3.74726 6.72154 4.33991 5.83297 5.08791 5.08497C5.83592 4.33696 6.72449 3.74431 7.70248 3.34114C8.68046 2.93796 9.72854 2.73222 10.7864 2.73576C11.8442 2.73931 12.8909 2.95206 13.8661 3.36179C14.8414 3.77151 15.726 4.37156 16.469 5.12455Z" fill="#0D4A41"/>
</svg>
