<svg width="22" height="28" viewBox="0 0 22 28" fill="none" xmlns="http://www.w3.org/2000/svg">
<path fill-rule="evenodd" clip-rule="evenodd" d="M9.98525 27.6193C9.98525 27.6193 0 19.2295 0 10.9742C0 8.06366 1.15893 5.27233 3.22183 3.21427C5.28473 1.15621 8.08262 0 11 0C13.9174 0 16.7153 1.15621 18.7782 3.21427C20.8411 5.27233 22 8.06366 22 10.9742C22 19.2295 12.0147 27.6193 12.0147 27.6193C11.4592 28.1296 10.5449 28.1241 9.98525 27.6193ZM11 15.7754C11.632 15.7754 12.2578 15.6512 12.8417 15.4099C13.4255 15.1687 13.9561 14.815 14.403 14.3692C14.8498 13.9233 15.2043 13.3941 15.4462 12.8115C15.688 12.229 15.8125 11.6047 15.8125 10.9742C15.8125 10.3437 15.688 9.71937 15.4462 9.13686C15.2043 8.55435 14.8498 8.02507 14.403 7.57923C13.9561 7.1334 13.4255 6.77974 12.8417 6.53846C12.2578 6.29718 11.632 6.17299 11 6.17299C9.72365 6.17299 8.49957 6.67883 7.59705 7.57923C6.69453 8.47964 6.1875 9.70084 6.1875 10.9742C6.1875 12.2476 6.69453 13.4688 7.59705 14.3692C8.49957 15.2696 9.72365 15.7754 11 15.7754Z" fill="#5B212F"/>
</svg>
