<svg width="30" height="23" viewBox="0 0 30 23" fill="none" xmlns="http://www.w3.org/2000/svg">
<path d="M4.39275 0.439804C4.67401 0.158343 5.05556 0.000140746 5.45347 9.38665e-08C5.85137 -0.000140558 6.23304 0.157792 6.5145 0.439054C6.79596 0.720316 6.95416 1.10187 6.9543 1.49977C6.95444 1.89768 6.79651 2.27934 6.51525 2.5608C4.26514 4.8112 3.00106 7.86322 3.00106 11.0456C3.00106 14.2279 4.26514 17.2799 6.51525 19.5303C6.79671 19.8116 6.95491 20.1931 6.95505 20.591C6.95519 20.9889 6.79726 21.3706 6.516 21.6521C6.23474 21.9335 5.85318 22.0917 5.45528 22.0919C5.05737 22.092 4.67571 21.9341 4.39425 21.6528C-1.46475 15.7953 -1.46475 6.2973 4.39425 0.439804M23.4862 0.439804C23.7675 0.158597 24.149 0.000624512 24.5467 0.000624512C24.9445 0.000624512 25.326 0.158597 25.6072 0.439804C31.4662 6.2973 31.4662 15.7953 25.6072 21.6528C25.3258 21.9341 24.9441 22.092 24.5462 22.0919C24.1483 22.0917 23.7668 21.9335 23.4855 21.6521C23.2042 21.3706 23.0463 20.9889 23.0464 20.591C23.0466 20.1931 23.2048 19.8116 23.4862 19.5303C25.7364 17.2799 27.0004 14.2279 27.0004 11.0456C27.0004 7.86322 25.7364 4.8112 23.4862 2.5608C23.205 2.27951 23.0471 1.89805 23.0471 1.5003C23.0471 1.10256 23.205 0.721095 23.4862 0.439804ZM8.63625 4.6818C8.91896 4.40836 9.29776 4.2569 9.69106 4.26003C10.0844 4.26317 10.4607 4.42066 10.739 4.69857C11.0173 4.97649 11.1753 5.3526 11.179 5.7459C11.1827 6.1392 11.0318 6.51821 10.7587 6.8013C10.2016 7.35846 9.75958 8.01991 9.45803 8.74788C9.15649 9.47586 9.00128 10.2561 9.00128 11.0441C9.00128 11.832 9.15649 12.6123 9.45803 13.3402C9.75958 14.0682 10.2016 14.7296 10.7587 15.2868C11.032 15.5697 11.1832 15.9486 11.1798 16.3419C11.1763 16.7352 11.0186 17.1114 10.7405 17.3895C10.4624 17.6676 10.0861 17.8254 9.69285 17.8288C9.29956 17.8322 8.92065 17.681 8.63775 17.4078C6.95005 15.72 6.00192 13.4309 6.00192 11.0441C6.00192 8.65721 6.95005 6.36811 8.63775 4.6803M19.2443 4.6803C19.5255 4.3991 19.907 4.24112 20.3048 4.24112C20.7025 4.24112 21.084 4.3991 21.3653 4.6803C23.0529 6.36811 24.0011 8.65721 24.0011 11.0441C24.0011 13.4309 23.0529 15.72 21.3653 17.4078C21.0823 17.681 20.7034 17.8322 20.3101 17.8288C19.9169 17.8254 19.5406 17.6676 19.2625 17.3895C18.9844 17.1114 18.8267 16.7352 18.8232 16.3419C18.8198 15.9486 18.971 15.5697 19.2443 15.2868C19.8014 14.7296 20.2434 14.0682 20.545 13.3402C20.8465 12.6123 21.0017 11.832 21.0017 11.0441C21.0017 10.2561 20.8465 9.47586 20.545 8.74788C20.2434 8.01991 19.8014 7.35846 19.2443 6.8013C18.963 6.52001 18.8051 6.13855 18.8051 5.7408C18.8051 5.34306 18.963 4.9616 19.2443 4.6803ZM14.9977 8.7963C15.5945 8.7963 16.1668 9.03336 16.5887 9.45531C17.0107 9.87727 17.2477 10.4496 17.2477 11.0463C17.2477 11.643 17.0107 12.2153 16.5887 12.6373C16.1668 13.0593 15.5945 13.2963 14.9977 13.2963C14.401 13.2963 13.8287 13.0593 13.4068 12.6373C12.9848 12.2153 12.7478 11.643 12.7477 11.0463C12.7477 10.4496 12.9848 9.87727 13.4068 9.45531C13.8287 9.03336 14.401 8.7963 14.9977 8.7963Z" fill="#5B212F"/>
</svg>
